<?xml version="1.0" encoding="utf-8"?>
<!-- Generator: Adobe Illustrator 17.1.0, SVG Export Plug-In . SVG Version: 6.00 Build 0)  -->
<!DOCTYPE svg PUBLIC "-//W3C//DTD SVG 1.1//EN" "http://www.w3.org/Graphics/SVG/1.1/DTD/svg11.dtd">
<svg version="1.1" id="Layer_1" xmlns="http://www.w3.org/2000/svg" xmlns:xlink="http://www.w3.org/1999/xlink" x="0px" y="0px"
	 viewBox="0 0 700 480" enable-background="new 0 0 700 480" xml:space="preserve">
<g>
	<g>
		<g>
			<path fill-rule="evenodd" clip-rule="evenodd" fill="#001F5E" d="M236.2,336.6c9-15.3,50.7-5.2,79.7-39.3
				c14.9-14.5,24.1-34.8,24.1-57.2c0-44.2-35.8-80-80-80c-32.3,0-60.1,19.2-72.8,46.8c-27.5,48.9,8.8,83.7-1,100.4
				c-9.1,15.5-51.2,2.2-82.1,41c-11.9,14-19.1,32-19.1,51.8c0,44.2,35.8,80,80,80c28.3,0,53.2-14.7,67.4-37c0.6-0.6,1.2-1.3,1.6-2.2
				C265.2,387.9,226.3,353.4,236.2,336.6z M160,240c0-44.2-35.8-80-80-80S0,195.8,0,240s35.8,80,80,80S160,284.2,160,240z
				 M683.1,190.9c-31.2-45.7-76.8-30.5-86.3-46.7c-9.2-15.6,21.9-47,3.6-91C589.4,22.2,559.8,0,525,0c-44.2,0-80,35.8-80,80
				c0,26.7,13.1,50.3,33.2,64.9c27.6,21.4,60.7,15.2,68.6,28.7c9.9,16.9-29,51.3,2.1,104.3c0.6,1,1.3,1.9,2.1,2.6
				c13.9,23.7,39.6,39.6,69,39.6c44.2,0,80-35.8,80-80C700,221.5,693.7,204.4,683.1,190.9z M360,240c0,44.2,35.8,80,80,80
				s80-35.8,80-80s-35.8-80-80-80S360,195.8,360,240z M528.4,320.1c-0.4-0.1-0.9-0.1-1.4-0.1c-0.4,0-0.9,0-1.3,0c-0.2,0-0.5,0-0.7,0
				c-5.8,0-11.4,0.6-16.9,1.8c-44.9,9-54.8,49.2-72.1,49.2c-16.6,0-27.5-35.9-65.6-46.9c-8-2.7-16.5-4.1-25.4-4.1
				c-44.2,0-80,35.8-80,80s35.8,80,80,80c10.3,0,20.1-2,29.1-5.5C408.4,462.2,420,429,436,429c17.4,0,27.2,40.2,72.1,49.2
				c5.4,1.2,11.1,1.8,16.9,1.8c0.2,0,0.5,0,0.7,0c0.4,0,0.9,0,1.3,0c0.5,0,0.9,0,1.4-0.1C571,478.1,605,443,605,400
				S571,321.9,528.4,320.1z M165,160c25.8,0,48.7-12.2,63.3-31.1c10-10.6,17.3-19.9,25.7-19.9c19.6,0,29.6,51,91,51
				c44.2,0,80-35.8,80-80S389.2,0,345,0c-61.4,0-71.4,51-91,51c-9.3,0-16.9-11.3-28.4-23.2C210.9,10.8,189.2,0,165,0
				c-44.2,0-80,35.8-80,80S120.8,160,165,160z"/>
		</g>
	</g>
</g>
<g>
	<circle fill="#0C7BC0" cx="345" cy="400" r="60"/>
	<path opacity="0.3" fill="#002C90" enable-background="new    " d="M365,378.5L346.5,360l-17.7,56.4v-0.5l-17.3,6.1l11.8,11.8
		L321,441l18.8,18.8c1.7,0.1,3.5,0.2,5.2,0.2c33.1,0,60-26.9,60-60c0-3.3-0.3-6.6-0.8-9.8l-20.4-20.4L365,378.5z"/>
	<rect x="311" y="375" fill="#FFFFFF" width="68" height="47"/>
	<rect x="345" y="375" fill="#EFEFEF" width="34" height="47"/>
	<rect x="305" y="369" fill="#002C90" width="80" height="6"/>
	<rect x="345" y="369" fill="#001F5E" width="40" height="6"/>
	<rect x="343.5" y="360" fill="#002C90" width="3" height="9"/>
	<g>
		<polygon fill="#001F5E" points="328.5,422 325.5,422 320.5,441 323.5,441 		"/>
		<polygon fill="#001F5E" points="361.5,422 364.5,422 369.5,441 366.5,441 		"/>
	</g>
	<polygon fill="#E5E5E5" points="356.2,384.5 328.7,410 314,395.4 314,419 376,419 376,402.5 	"/>
	<polygon fill="#D3D3D3" points="345,394.9 345,419 376,419 376,402.5 356.2,384.5 	"/>
</g>
<g>
	<circle fill="#0C7BC0" cx="524" cy="400" r="60"/>
	<path opacity="0.3" fill="#002C90" enable-background="new    " d="M581,418.9l-22.7-22.7l-1.6,9.4l-30.4-30.4l-0.2,1.1l-17.9-17.9
		L490,403.2l53.5,53.5C561.2,450.7,575.1,436.6,581,418.9z"/>
	<path fill="#001F5E" d="M525.5,425.8c1.9,0,7.7,0,13.8,0c-0.3,1.5-0.6,2.9-0.8,4.4c-0.2,1.6-0.6,3.2-0.4,4.9
		c0.2,1.9,0.4,3.4,1.3,5.4c0.5,1.2,1.4,1.7,2.7,1.6c2.1-0.1,2-1.1,2.3-2.3c0.4-1.8,1.3-6.2,1.9-7.2c0.9-1.7,1.8-3.4,2.9-5.1
		c2.1-3.2,3.9-6.8,7.2-9.1c1.2-0.3,1.6-1.1,1.6-2.4c-0.1-4.5,0-11.4,0-15.9c0-1.1,0-2.3,0-3.4c0-0.7-0.3-1-0.9-0.9
		c-0.2,0-0.4,0-0.6,0.1c-0.8-0.1-1.4-0.5-2.1-0.9c-0.9-0.5-1.7-1.1-2.8-1.1h-0.1l0,0c-5.4,0-17.5,0-22.3,0s-5.1,1.5-6,4.2
		c-0.9,2.7-2.4,19.6-2.4,22.6C520.7,423.7,522.5,425.8,525.5,425.8z"/>
	<path fill="#002C90" d="M525.5,425.8c1.8,0,7,0,12.6,0v-31.9c-3.6,0-7,0-9,0c-4.8,0-5.1,1.5-6,4.2c-0.9,2.7-2.4,19.6-2.4,22.6
		S522.5,425.8,525.5,425.8z"/>
	<path fill="#FDFDFD" d="M522.5,374.2c-1.9,0-7.7,0-13.8,0c0.3-1.5,0.6-2.9,0.8-4.4c0.2-1.6,0.6-3.2,0.4-4.9
		c-0.2-1.9-0.4-3.4-1.3-5.4c-0.5-1.2-1.4-1.7-2.7-1.6c-2.1,0.1-2,1.1-2.3,2.3c-0.4,1.8-1.3,6.2-1.9,7.2c-0.9,1.7-1.8,3.4-2.9,5.1
		c-2.1,3.2-3.9,6.8-7.2,9.1c-1.2,0.3-1.6,1.1-1.6,2.4c0.1,4.5,0,11.4,0,15.9c0,1.1,0,2.3,0,3.4c0,0.7,0.3,1,0.9,0.9
		c0.2,0,0.4,0,0.6-0.1c0.8,0.1,1.4,0.5,2.1,0.9c0.9,0.5,1.7,1.1,2.8,1.1h0.1l0,0c5.4,0,17.5,0,22.3,0s5.1-1.5,6-4.2
		c0.9-2.7,2.4-19.6,2.4-22.6S525.5,374.2,522.5,374.2z"/>
	<path fill="#EFEFEF" d="M522.5,374.2c-1.8,0-7,0-12.6,0v31.9c3.6,0,7,0,9,0c4.8,0,5.1-1.5,6-4.2c0.9-2.7,2.4-19.6,2.4-22.6
		S525.5,374.2,522.5,374.2z"/>
</g>
<g>
	<circle fill="#0C7BC0" cx="165.5" cy="400" r="60"/>
	<path opacity="0.3" fill="#002C90" enable-background="new    " d="M174.6,459.3c26-4,46.5-24.7,50.3-50.8L201,384l-3.8,2.5
		l-11.7-11.7l-1.2,3.8l-13.8-13.8l-40,50.4L174.6,459.3z"/>
	<g>
		<polygon fill="#002C90" points="170.5,397.7 130.5,415.2 130.5,382.3 170.5,364.8 		"/>
		<polygon fill="#002C90" points="144.1,366.8 130.5,372.7 130.5,382.9 148.3,375.2 		"/>
		<polygon fill="#001F5E" points="150.5,406.5 170.5,397.7 170.5,364.8 150.5,373.5 		"/>
		<polygon fill="#1DDEEF" points="185.5,407.7 145.5,425.2 145.5,392.3 185.5,374.8 		"/>
		<polygon fill="#1DDEEF" points="159.1,376.8 145.5,382.7 145.5,392.9 163.3,385.2 		"/>
		<polygon fill="#1CC2C6" points="165.5,416.5 185.5,407.7 185.5,374.8 165.5,383.5 		"/>
		<polygon fill="#FFFFFF" points="200.5,417.7 160.5,435.2 160.5,402.3 200.5,384.8 		"/>
		<polygon fill="#FFFFFF" points="174.1,386.8 160.5,392.7 160.5,402.9 178.3,395.2 		"/>
		<polygon fill="#E8E8E8" points="180.5,426.5 200.5,417.7 200.5,384.8 180.5,393.5 		"/>
	</g>
</g>
<g>
	<circle fill="#0C7BC0" cx="620" cy="240.2" r="60"/>
	<path opacity="0.3" fill="#002C90" enable-background="new    " d="M679.7,246.5l-30.6-30.6L602,286.2l13.8,13.8
		c1.4,0.1,2.8,0.2,4.2,0.2C651,300.2,676.5,276.7,679.7,246.5z"/>
	<polygon fill="#002C90" points="637.5,264.2 602,286.2 579.5,248.2 614.8,225.7 	"/>
	<circle fill="#002C90" cx="635.4" cy="261.4" r="7.4"/>
	<circle fill="#001F5E" cx="635.4" cy="261.4" r="5"/>
	<polygon fill="#001F5E" points="627,254.2 631.7,264.2 636.5,265.2 640,261.7 633.5,250.7 	"/>
	<polygon fill="#001F5E" points="637.5,264.2 671,262.2 648.5,224.2 614.8,225.7 	"/>
	<g>
		<path fill="#BCBCBC" d="M645.1,216c0.1,0.2,0.1,1.3,0.1,1.3L645.1,216c-0.7-1.3-8.9-8-19.5-4.9c-12.5,3.8-10.6,13.2-10.6,13.2
			l20.8,36.6c0,0,5.5-11.2,15.6-12.2c8.8-0.8,11.9,4.5,12.5,5.9L645.1,216z"/>
		<path fill="#BCBCBC" d="M663.9,246.6l0.1,0.3C664,246.9,664,246.8,663.9,246.6z"/>
	</g>
	<g>
		<path fill="#D8D8D8" d="M614.9,224.8c0.1,0.2-0.9,0.3-0.9,0.3l-0.1-0.3c-0.7-1.3-1.4-7-11.8-3.9c-12.3,3.7-15.9,20.2-15.9,20.2
			l18.5,35.6c0,0,8.1-17,17.9-19.2c10.6-2.3,12.2,1.5,12.8,2.9L614.9,224.8z"/>
		<path fill="#D8D8D8" d="M635.4,260.4l0.1,0.3C635.5,260.7,635.5,260.6,635.4,260.4z"/>
	</g>
	<g>
		<path fill="#FFFFFF" d="M614.4,224.8c0.1,0.2,0.1,0.3,0.1,0.3L614.4,224.8c-0.7-1.3-4.9-10-16.9-6.9c-14,3.7-18,20.2-18,20.2
			l21,35.6c0,0,6.9-18,18-20.2c12.1-2.3,16.1,5.5,16.9,6.9L614.4,224.8z"/>
		<path fill="#FFFFFF" d="M635.4,260.4l0.1,0.3C635.5,260.7,635.5,260.6,635.4,260.4z"/>
	</g>
	<g>
		<path fill="#E5E5E5" d="M648.9,216c0.1,0.2,0.1,1.3,0.1,1.3L648.9,216c-0.7-1.3-9.9-10-21.9-6.9c-14,3.7-13,15.2-13,15.2l21,35.6
			c0,0,1.9-13,13-15.2c12.1-2.3,21.1,6.5,21.9,7.9L648.9,216z"/>
		<path fill="#E5E5E5" d="M669.9,246.6l0.1,0.3C670,246.9,670,246.8,669.9,246.6z"/>
	</g>
</g>
<g>
	<circle fill="#0C7BC0" cx="79" cy="240.2" r="60"/>
	<path opacity="0.3" fill="#002C90" enable-background="new    " d="M138.1,250.8l-56.2-56.2l-27.7,89.6l15.2,15.2
		c3.1,0.5,6.3,0.8,9.6,0.8C108.5,300.2,133.1,278.9,138.1,250.8z"/>
	<polygon fill="#FFFFFF" points="68,220.3 55.4,273.5 60.4,275 79.7,234.6 	"/>
	<polygon fill="#F2F2F2" points="90.6,220.3 103.2,273.5 98.2,275 78.9,234.6 	"/>
	<path fill="#002C90" d="M90.7,236.5c0,1.7-23.3,1.7-23.3,0v-26.8c0-1.7,1.3-3,3-3h17.3c1.7,0,3,1.3,3,3V236.5z"/>
	<path fill="#001F5E" d="M87.7,206.7H79v31.1c5.8,0,11.7-0.4,11.7-1.3v-26.8C90.7,208,89.4,206.7,87.7,206.7z"/>
	<rect x="76" y="194.5" fill="#002C90" width="6" height="26.8"/>
	<rect x="79" y="194.5" fill="#001F5E" width="3" height="26.8"/>
	<circle fill="#0C7BC0" cx="79" cy="222" r="3.7"/>
	<polygon fill="#FFFFFF" points="58.2,268.5 54.2,284.2 61.5,268.6 	"/>
	<path fill="#F2F2F2" d="M108.5,271.5c0.6-0.6,1.1-1.4,1.2-2.4c0.2-1.9-1.1-3.7-2.9-4.1L108.5,271.5z"/>
	<polygon fill="#F2F2F2" points="108.4,277.1 102.7,255 100.1,255.6 107.1,282.2 	"/>
</g>
<g>
	<circle fill="#0C7BC0" cx="259" cy="240.2" r="60"/>
	<path opacity="0.3" fill="#002C90" enable-background="new    " d="M318.1,250.3l-41.8-41.8l-49.8,66.2l25,25
		c2.5,0.3,4.9,0.5,7.5,0.5C288.7,300.2,313.3,278.6,318.1,250.3z"/>
	<polygon fill="#FFFFFF" points="259.5,208.4 241.5,208.4 241.5,238.7 259.5,238.7 276.5,238.7 276.5,208.4 	"/>
	<polygon fill="#002C90" points="256.5,266.2 291.5,266.2 280.5,238.7 256.5,238.7 	"/>
	<rect x="256.5" y="266.2" fill="#001F5E" width="35" height="8.5"/>
	<rect x="283.2" y="229" fill="#002C90" width="2.3" height="7.2"/>
	<polygon fill="#002C90" points="261.5,266.2 226.5,266.2 237.5,238.7 261.5,238.7 	"/>
	<ellipse fill="#FFFFFF" cx="259" cy="238.6" rx="7.9" ry="4.4"/>
	<rect x="226.5" y="266.2" fill="#001F5E" width="35" height="8.5"/>
	<rect x="232.5" y="229" fill="#002C90" width="2.3" height="7.2"/>
	<g>
		<g>
			<path fill="#001F5E" d="M238.1,257.7c0-1.4-1.9-2.5-4.3-2.5c-2.4,0-4.3,1.1-4.3,2.5c0,0.4,0,1.6,0,2c0,1.4,1.9,2.5,4.3,2.5
				c2.4,0,4.3-1.1,4.3-2.5C238.1,259.3,238.1,258.1,238.1,257.7z"/>
			<ellipse fill="#0C7BC0" cx="233.8" cy="257.7" rx="4.3" ry="2.5"/>
			<ellipse fill="#1DDEEF" cx="233.8" cy="257.7" rx="2.3" ry="1.3"/>
		</g>
		<g>
			<path fill="#001F5E" d="M251.1,257.7c0-1.4-1.9-2.5-4.3-2.5c-2.4,0-4.3,1.1-4.3,2.5c0,0.4,0,1.6,0,2c0,1.4,1.9,2.5,4.3,2.5
				c2.4,0,4.3-1.1,4.3-2.5C251.1,259.3,251.1,258.1,251.1,257.7z"/>
			<ellipse fill="#0C7BC0" cx="246.8" cy="257.7" rx="4.3" ry="2.5"/>
			<ellipse fill="#1DDEEF" cx="246.8" cy="257.7" rx="2.3" ry="1.3"/>
		</g>
		<g>
			<path fill="#001F5E" d="M245.1,249.7c0-1.4-1.9-2.5-4.3-2.5c-2.4,0-4.3,1.1-4.3,2.5c0,0.4,0,1.6,0,2c0,1.4,1.9,2.5,4.3,2.5
				c2.4,0,4.3-1.1,4.3-2.5C245.1,251.3,245.1,250.1,245.1,249.7z"/>
			<ellipse fill="#0C7BC0" cx="240.8" cy="249.7" rx="4.3" ry="2.5"/>
			<ellipse fill="#1DDEEF" cx="240.8" cy="249.7" rx="2.3" ry="1.3"/>
		</g>
		<g>
			<path fill="#001F5E" d="M257.1,249.7c0-1.4-1.9-2.5-4.3-2.5c-2.4,0-4.3,1.1-4.3,2.5c0,0.4,0,1.6,0,2c0,1.4,1.9,2.5,4.3,2.5
				c2.4,0,4.3-1.1,4.3-2.5C257.1,251.3,257.1,250.1,257.1,249.7z"/>
			<ellipse fill="#0C7BC0" cx="252.8" cy="249.7" rx="4.3" ry="2.5"/>
			<ellipse fill="#1DDEEF" cx="252.8" cy="249.7" rx="2.3" ry="1.3"/>
		</g>
		<g>
			<path fill="#001F5E" d="M263.1,257.7c0-1.4-1.9-2.5-4.3-2.5c-2.4,0-4.3,1.1-4.3,2.5c0,0.4,0,1.6,0,2c0,1.4,1.9,2.5,4.3,2.5
				c2.4,0,4.3-1.1,4.3-2.5C263.1,259.3,263.1,258.1,263.1,257.7z"/>
			<ellipse fill="#0C7BC0" cx="258.8" cy="257.7" rx="4.3" ry="2.5"/>
			<ellipse fill="#1DDEEF" cx="258.8" cy="257.7" rx="2.3" ry="1.3"/>
		</g>
		<g>
			<path fill="#001F5E" d="M279.9,257.7c0-1.4,1.9-2.5,4.3-2.5c2.4,0,4.3,1.1,4.3,2.5c0,0.4,0,1.6,0,2c0,1.4-1.9,2.5-4.3,2.5
				c-2.4,0-4.3-1.1-4.3-2.5C279.9,259.3,279.9,258.1,279.9,257.7z"/>
			<ellipse fill="#0C7BC0" cx="284.2" cy="257.7" rx="4.3" ry="2.5"/>
			<ellipse fill="#1DDEEF" cx="284.2" cy="257.7" rx="2.3" ry="1.3"/>
		</g>
		<g>
			<path fill="#001F5E" d="M266.9,257.7c0-1.4,1.9-2.5,4.3-2.5c2.4,0,4.3,1.1,4.3,2.5c0,0.4,0,1.6,0,2c0,1.4-1.9,2.5-4.3,2.5
				c-2.4,0-4.3-1.1-4.3-2.5C266.9,259.3,266.9,258.1,266.9,257.7z"/>
			<ellipse fill="#0C7BC0" cx="271.2" cy="257.7" rx="4.3" ry="2.5"/>
			<ellipse fill="#1DDEEF" cx="271.2" cy="257.7" rx="2.3" ry="1.3"/>
		</g>
		<g>
			<path fill="#001F5E" d="M272.9,249.7c0-1.4,1.9-2.5,4.3-2.5c2.4,0,4.3,1.1,4.3,2.5c0,0.4,0,1.6,0,2c0,1.4-1.9,2.5-4.3,2.5
				c-2.4,0-4.3-1.1-4.3-2.5C272.9,251.3,272.9,250.1,272.9,249.7z"/>
			<ellipse fill="#0C7BC0" cx="277.2" cy="249.7" rx="4.3" ry="2.5"/>
			<ellipse fill="#1DDEEF" cx="277.2" cy="249.7" rx="2.3" ry="1.3"/>
		</g>
		<g>
			<path fill="#001F5E" d="M260.9,249.7c0-1.4,1.9-2.5,4.3-2.5c2.4,0,4.3,1.1,4.3,2.5c0,0.4,0,1.6,0,2c0,1.4-1.9,2.5-4.3,2.5
				c-2.4,0-4.3-1.1-4.3-2.5C260.9,251.3,260.9,250.1,260.9,249.7z"/>
			<ellipse fill="#0C7BC0" cx="265.2" cy="249.7" rx="4.3" ry="2.5"/>
			<ellipse fill="#1DDEEF" cx="265.2" cy="249.7" rx="2.3" ry="1.3"/>
		</g>
	</g>
	<polygon fill="#002C90" points="235.8,227.7 235.8,237.2 257.5,237.2 260.5,237.2 282.2,237.2 282.2,227.7 	"/>
</g>
<g>
	<circle fill="#0C7BC0" cx="439" cy="240.2" r="60"/>
	<path opacity="0.3" fill="#002C90" enable-background="new    " d="M499,240.2c0-0.6,0-1.3,0-1.9l-31.2-31.2L406,269.4l30.7,30.7
		c0.8,0,1.5,0.1,2.3,0.1C472.1,300.2,499,273.3,499,240.2z"/>
	<polygon fill="#002C90" points="472.5,274 410.5,274 410.5,228.4 427.5,211.4 472.5,211.4 	"/>
	<rect x="441.5" y="211.4" fill="#001F5E" width="31" height="62.5"/>
	<polygon fill="#FFFFFF" points="467.5,269 405.5,269 405.5,228.4 427.5,206.4 467.5,206.4 	"/>
	<rect x="436.5" y="206.4" fill="#EFEFEF" width="31" height="62.5"/>
	<rect x="416.5" y="219.2" fill="#D3D3D3" width="40" height="1"/>
	<rect x="416.5" y="228.2" fill="#D3D3D3" width="40" height="1"/>
	<rect x="416.5" y="237.2" fill="#D3D3D3" width="40" height="1"/>
	<rect x="416.5" y="246.2" fill="#D3D3D3" width="40" height="1"/>
	<rect x="436.5" y="219.2" fill="#BCBCBC" width="20" height="1"/>
	<rect x="436.5" y="228.2" fill="#BCBCBC" width="20" height="1"/>
	<rect x="436.5" y="237.2" fill="#BCBCBC" width="20" height="1"/>
	<rect x="436.5" y="246.2" fill="#BCBCBC" width="20" height="1"/>
	<rect x="416.5" y="255.2" fill="#D3D3D3" width="20" height="1"/>
	<polygon fill="#1DDEEF" points="405.8,228.2 426.5,228.2 426.5,207.4 	"/>
</g>
<g>
	<circle fill="#0C7BC0" cx="344.5" cy="79.2" r="60"/>
	<path opacity="0.3" fill="#002C90" enable-background="new    " d="M390.5,117.7l-48.8-48.8l-35.6,38.5l31.4,31.4
		c2.3,0.3,4.7,0.4,7.1,0.4C363,139.2,379.5,130.8,390.5,117.7z"/>
	<path opacity="0.3" fill="#002C90" enable-background="new    " d="M353.1,71.4l41.2,41.2c6.4-9.5,10.2-21,10.2-33.4
		c0-1.6-0.1-3.1-0.2-4.7l-26.6-26.6L353.1,71.4z"/>
	<path fill="#002C90" d="M348.7,93.2c0-0.7,0-1.5-0.1-2.2l6.1-5.3c-0.5-1.6-1.1-3.1-1.8-4.6l-7.9,0.5c-1.1-1.6-2.5-3-4.1-4.2l0.5-8
		c-1.4-0.7-2.8-1.4-4.4-1.8l-5.3,6c-1-0.2-2-0.3-3-0.3s-2,0.1-3,0.3l-5.3-6c-1.5,0.5-3,1.1-4.4,1.8l0.5,8c-1.6,1.2-2.9,2.6-4.1,4.2
		l-7.9-0.5c-0.7,1.5-1.3,3-1.8,4.6l6.1,5.3c-0.1,0.7-0.1,1.5-0.1,2.2c0,1.1,0.1,2.1,0.3,3.1l-5.9,5.2c0.5,1.7,1.2,3.3,2.1,4.8
		l8.1-0.5c1,1.2,2.2,2.3,3.4,3.3l-0.5,8c1.6,0.8,3.3,1.5,5,2l5.3-6c0.7,0.1,1.5,0.1,2.3,0.1c0.8,0,1.5-0.1,2.3-0.1l5.3,6
		c1.7-0.5,3.4-1.2,5-2l-0.5-8c1.3-1,2.4-2.1,3.4-3.3l8.1,0.5c0.8-1.5,1.5-3.1,2.1-4.8l-5.9-5.2C348.6,95.3,348.7,94.2,348.7,93.2z"
		/>
	<path fill="#001F5E" d="M328.8,113.2c0.8,0,1.5-0.1,2.3-0.1l5.3,6c1.7-0.5,3.4-1.2,5-2l-0.5-8c1.3-1,2.4-2.1,3.4-3.3l8.1,0.5
		c0.8-1.5,1.5-3.1,2.1-4.8l-5.9-5.2c0-1,0.1-2.1,0.1-3.1c0-0.7,0-1.5-0.1-2.2l6.1-5.3c-0.5-1.6-1.1-3.1-1.8-4.6l-7.9,0.5
		c-1.1-1.6-2.5-3-4.1-4.2l0.5-8c-1.4-0.7-2.8-1.4-4.4-1.8l-5.3,6c-1-0.2-2-0.3-3-0.3L328.8,113.2
		C328.7,113.2,328.8,113.2,328.8,113.2z"/>
	<circle fill="#0C7BC0" cx="328.7" cy="93.2" r="6"/>
	<path fill="#FFFFFF" d="M377.3,55.5c-0.1-0.4-0.3-0.9-0.5-1.3l2.6-4.3c-0.6-0.9-1.2-1.7-1.9-2.4l-4.7,1.7c-1-0.7-2.1-1.3-3.2-1.8
		l-1.2-4.9c-1-0.2-2-0.3-3-0.3l-2,4.6c-0.6,0.1-1.2,0.2-1.9,0.4c-0.6,0.2-1.2,0.4-1.8,0.7l-4.2-2.5c-0.8,0.6-1.6,1.2-2.3,1.9L355,52
		c-0.7,1-1.3,2.1-1.7,3.3l-4.8,1.2c-0.2,1-0.2,2-0.2,3.1l4.6,2.1c0.1,0.5,0.2,0.9,0.3,1.3c0.2,0.6,0.5,1.2,0.7,1.8l-2.6,4.3
		c0.6,0.9,1.4,1.7,2.1,2.5l4.8-1.8c0.8,0.6,1.7,1,2.7,1.3l1.2,4.9c1.1,0.2,2.2,0.3,3.4,0.3l2.1-4.6c0.5-0.1,0.9-0.2,1.4-0.3
		s0.9-0.3,1.3-0.5l4.3,2.6c1-0.6,1.8-1.4,2.6-2.2l-1.7-4.8c0.6-0.8,1.1-1.7,1.4-2.6l4.9-1.2c0.2-1.1,0.3-2.2,0.4-3.3l-4.5-2
		C377.6,56.8,377.5,56.2,377.3,55.5z"/>
	<path fill="#F2F2F2" d="M377.3,55.5c-0.1-0.4-0.3-0.9-0.5-1.3l2.6-4.3c-0.6-0.9-1.2-1.7-1.9-2.4l-4.7,1.7c-1-0.7-2.1-1.3-3.2-1.8
		l-1.2-4.9c-1-0.2-2-0.3-3-0.3l-0.2,0.3v33.7c0.1,0,0.2,0,0.2,0l2.1-4.6c0.5-0.1,0.9-0.2,1.4-0.3s0.9-0.3,1.3-0.5l4.3,2.6
		c1-0.6,1.8-1.4,2.6-2.2l-1.6-4.7c0.6-0.8,1.1-1.7,1.4-2.6l4.9-1.2c0.2-1.1,0.3-2.2,0.4-3.3l-4.5-2
		C377.6,56.8,377.5,56.2,377.3,55.5z"/>
	<circle fill="#0C7BC0" cx="365.3" cy="59.3" r="3.8"/>
</g>
<g>
	<circle fill="#0C7BC0" cx="164.5" cy="79.2" r="60"/>
	<path opacity="0.3" fill="#002C90" enable-background="new    " d="M127.4,114.4l23.4,23.2c4.4,1,9,1.6,13.7,1.6
		c33.1,0,60-26.9,60-60c0-2.6-0.2-5.2-0.5-7.7l-22.9-22.9L127.4,114.4z"/>
	<path fill="#FFFFFF" d="M201.5,110.3c0,3.3-2.5,5.9-5.8,5.9h-63.5c-3.3,0-5.7-2.6-5.7-5.9V53.6c0-3.3,2.5-6.4,5.7-6.4h63.5
		c3.3,0,5.8,3,5.8,6.4V110.3z"/>
	<path fill="#F2F2F2" d="M195.7,47.2h-31.2v69h31.2c3.3,0,5.8-2.6,5.8-5.9V53.6C201.5,50.2,199,47.2,195.7,47.2z"/>
	<rect x="126.5" y="47.2" fill="#002C90" width="75" height="19"/>
	<rect x="164.5" y="47.2" fill="#001F5E" width="37" height="19"/>
	<rect x="138.5" y="40.2" fill="#002C90" width="5" height="7"/>
	<rect x="184.5" y="40.2" fill="#002C90" width="5" height="7"/>
	<g>
		<path fill="#0C7BC0" d="M145.4,99.4c0,0,11.5-8.1,11.5-13.5c0-2.2-1.6-3.7-3.9-3.7c-2.9,0-5.6,2.2-5.6,2.2l-2-3.2
			c0,0,3.7-3.2,8.5-3.2c4.8,0,8.2,3.1,8.2,7.2c0,5.1-5.2,9.7-9.4,13.2h11.5v4h-18.5L145.4,99.4z"/>
		<path fill="#0C7BC0" d="M168.6,98.4h5.6V82.6h-5.3v-4h10.3v19.8h5.2v4h-15.8V98.4z"/>
	</g>
</g>
<g>
	<circle fill="#0C7BC0" cx="526" cy="79.2" r="60"/>
	<path opacity="0.3" fill="#002C90" enable-background="new    " d="M583.6,96.1L544,56.6l-17.7,18.7l5.6,63.6
		C556.5,136.5,576.8,119.2,583.6,96.1z"/>
	<path fill="#FFFFFF" d="M561,111.7c-3-0.5-22.8-4.8-24.3-7.5c-1.2-2.1-1.5-7.6-1.6-9.9c2-2,4-4.5,5.5-7.4c3.2,0,3.2-4.6,4.3-8.4
		c0.7-2.5-0.2-3.8-1-3.5c0.1-1.4,0.1-2.8,0.1-4.2c0.6-6.4,1.8-10.9-0.1-14.1c-2.3-3.9-10.5-7.1-13.7-7.9s-6.2,0.9-9.9,0
		c-2.4-0.6-7.8,4.2-7.8,8l0,0c-0.2-0.1-1.8-1-3.9,1.9c-1.5,2-1.2,6.6,0,12.2c0,1.6,0.1,3.3,0.2,4.9c-0.6-1.7-2.6-0.6-1.6,2.8
		c0.9,3.2,1.1,7,3,8.1l-0.3,0.2l5.9,6c0.4,0.4,0.7,0.9,1.1,1.3c-0.1,2.1-0.4,7.8-1.6,9.9c-1.5,2.7-21.3,7.1-24.3,7.6
		s-5.6,4.3-5.5,11.3c0,0.2,0,0.4,0.1,0.7c3.2,2.9,6.8,5.5,10.6,7.7c7.9,3.5,18.5,6.5,26.1,7.6c0.1,0.1,0.2,0.1,0.3,0.2
		c1.1,0.1,2.2,0.1,3.4,0.1c1.1,0,2.3,0,3.4-0.1c0.1-0.1,0.2-0.1,0.3-0.2c7.6-1.2,18.2-4.2,26.1-7.6c3.8-2.2,7.4-4.7,10.6-7.7
		c0.1-0.2,0.1-0.4,0.1-0.7C566.6,115.9,564,112.2,561,111.7z"/>
	<path fill="#F2F2F2" d="M561,111.7c-3-0.5-22.8-4.8-24.3-7.5c-1.2-2.1-1.5-7.6-1.6-9.9c2-2,4-4.5,5.5-7.4c3.2,0,3.2-4.6,4.3-8.4
		c0.7-2.5-0.2-3.8-1-3.5c0.1-1.4,0.1-2.8,0.1-4.2c0.6-6.4,1.8-10.9-0.1-14.1c-2.3-3.9-10.5-7.1-13.7-7.9c-1.4-0.4-2.8-0.2-4.2,0
		v90.5c1.1,0,2.3,0,3.4-0.1c0.1-0.1,0.2-0.1,0.3-0.2c7.6-1.2,18.2-4.2,26.1-7.6c3.8-2.2,7.4-4.7,10.6-7.7c0.1-0.2,0.1-0.4,0.1-0.7
		C566.6,115.9,564,112.2,561,111.7z"/>
	<path fill="#1DDEEF" d="M566.3,122.8c0-4.1-1.8-10.6-4.8-10.9c-3.1-0.3-18.4-5.9-18.4-5.9l-3.5-3l-12.6,9.4c0,0-0.4,0.4-1,1.2
		c-0.6-0.8-1-1.2-1-1.2l-12.8-9.4l-3.5,3c0,0-15.3,5.6-18.4,5.9s-4.8,6.8-4.8,11.1c0,0.2,0,0.4,0.1,0.6
		c10.7,9.7,24.9,15.6,40.4,15.6c3,0,5.9-0.2,8.8-0.6c0-0.1,0.1-0.1,0.1-0.2c12-1.8,22.8-7.1,31.3-14.8
		C566.3,123.3,566.3,123.1,566.3,122.8z"/>
	<path fill="#0C7BC0" d="M561.5,111.9c-3.1-0.3-18.4-5.9-18.4-5.9l-3.5-3l-12.6,9.4c0,0-0.4,0.4-1,1.2l0,0v25.6c3,0,5.9-0.2,8.8-0.6
		c0-0.1,0.1-0.1,0.1-0.2c12-1.8,22.8-7.1,31.3-14.8c0.1-0.3,0.1-0.5,0.1-0.8C566.3,118.7,564.5,112.2,561.5,111.9z"/>
	<path fill="#002C90" d="M484.7,122.7c8.4,8,19.2,13.6,31.1,15.6l-7.3-32.1h-2c-4.6,1-14.8,4.6-17.2,4.9
		C486.7,111.4,485.1,118,484.7,122.7z"/>
	<path fill="#001F5E" d="M562.5,111.1c-2.4-0.3-12.6-3.9-17.2-4.9h-2l-7.3,32.2c12-2,22.8-7.6,31.2-15.6c0-0.2,0-0.4,0-0.7
		C567.2,117.8,565.6,111.4,562.5,111.1z"/>
</g>
</svg>
