<?xml version="1.0" encoding="utf-8"?>
<!-- Generator: Adobe Illustrator 17.1.0, SVG Export Plug-In . SVG Version: 6.00 Build 0)  -->
<!DOCTYPE svg PUBLIC "-//W3C//DTD SVG 1.1//EN" "http://www.w3.org/Graphics/SVG/1.1/DTD/svg11.dtd">
<svg version="1.1" id="Layer_1" xmlns="http://www.w3.org/2000/svg" xmlns:xlink="http://www.w3.org/1999/xlink" x="0px" y="0px"
	 viewBox="0 0 100 25" enable-background="new 0 0 100 25" xml:space="preserve">
<path d="M50.8,24.5c-0.3,0-0.5,0-0.8,0c-9.7,0.3-16.9-4.9-24.8-11.2c-0.5-0.4-1-0.9-1.6-1.3C18.5,7.8,12.2,2.5,0,2.5v-2
	c12.9,0,19.6,5.5,24.9,9.9c0.5,0.4,1,0.9,1.6,1.3C34.2,18,40.9,22.8,50,22.5c9.1,0.3,15.8-4.5,23.6-10.8c0.5-0.4,1-0.8,1.6-1.3
	c5.3-4.4,12-9.9,24.9-9.9v2c-12.2,0-18.5,5.3-23.6,9.5c-0.5,0.4-1.1,0.9-1.6,1.3C67.2,19.4,60.1,24.5,50.8,24.5z"/>
</svg>
