<?xml version="1.0" encoding="utf-8"?>
<!-- Generator: Adobe Illustrator 17.1.0, SVG Export Plug-In . SVG Version: 6.00 Build 0)  -->
<!DOCTYPE svg PUBLIC "-//W3C//DTD SVG 1.1//EN" "http://www.w3.org/Graphics/SVG/1.1/DTD/svg11.dtd">
<svg version="1.1" id="Layer_1" xmlns="http://www.w3.org/2000/svg" xmlns:xlink="http://www.w3.org/1999/xlink" x="0px" y="0px"
	 viewBox="0 0 100 25" enable-background="new 0 0 100 25" xml:space="preserve">
<path d="M50.8,24c-0.3,0-0.5,0-0.8,0c-9.5,0.3-16.7-4.9-24.5-11.1c-0.5-0.4-1-0.8-1.6-1.3C18.8,7.3,12.4,2,0,2V1
	c12.7,0,19.3,5.4,24.6,9.8c0.5,0.4,1,0.9,1.6,1.3C34,18.4,40.8,23.3,50,23c9.3,0.3,16-4.5,23.9-10.9c0.5-0.4,1-0.8,1.6-1.3
	C80.7,6.4,87.3,1,100,1v1c-12.4,0-18.8,5.3-23.9,9.6c-0.5,0.4-1.1,0.9-1.6,1.3C67,19,59.9,24,50.8,24z"/>
</svg>
