<?xml version="1.0" encoding="utf-8"?>
<!-- Generator: Adobe Illustrator 17.1.0, SVG Export Plug-In . SVG Version: 6.00 Build 0)  -->
<!DOCTYPE svg PUBLIC "-//W3C//DTD SVG 1.1//EN" "http://www.w3.org/Graphics/SVG/1.1/DTD/svg11.dtd">
<svg version="1.1" id="Layer_1" xmlns="http://www.w3.org/2000/svg" xmlns:xlink="http://www.w3.org/1999/xlink" x="0px" y="0px"
	 viewBox="0 0 900 85" enable-background="new 0 0 900 85" xml:space="preserve">
<path opacity="0.75" fill="#002C90" enable-background="new    " d="M100,0.3C67.7,0.3,51.9,42.5,0,42.5c14.5,0,185.5,0,200,0
	C148.1,42.5,136.5,0.3,100,0.3z"/>
<path opacity="0.75" fill="#002C90" enable-background="new    " d="M250,0.3c-32.3,0-48.1,42.2-100,42.2c14.5,0,185.5,0,200,0
	C298.1,42.5,286.5,0.3,250,0.3z"/>
<path opacity="0.75" fill="#002C90" enable-background="new    " d="M400,0.3c-32.3,0-48.1,42.2-100,42.2c14.5,0,185.5,0,200,0
	C448.1,42.5,436.5,0.3,400,0.3z"/>
<path opacity="0.75" fill="#002C90" enable-background="new    " d="M550,0.3c-32.3,0-48.1,42.2-100,42.2c14.5,0,185.5,0,200,0
	C598.1,42.5,586.5,0.3,550,0.3z"/>
<path opacity="0.75" fill="#002C90" enable-background="new    " d="M700,0.3c-32.3,0-48.1,42.2-100,42.2c14.5,0,185.5,0,200,0
	C748.1,42.5,736.5,0.3,700,0.3z"/>
<path opacity="0.75" fill="#1DDEEF" enable-background="new    " d="M200,0.3c-32.3,0-48.1,42.2-100,42.2c14.5,0,185.5,0,200,0
	C248.1,42.5,236.5,0.3,200,0.3z"/>
<path opacity="0.75" fill="#1DDEEF" enable-background="new    " d="M350,0.3c-32.3,0-48.1,42.2-100,42.2c14.5,0,185.5,0,200,0
	C398.1,42.5,386.5,0.3,350,0.3z"/>
<path opacity="0.75" fill="#1DDEEF" enable-background="new    " d="M500,0.3c-32.3,0-48.1,42.2-100,42.2c14.5,0,185.5,0,200,0
	C548.1,42.5,536.5,0.3,500,0.3z"/>
<path opacity="0.75" fill="#1DDEEF" enable-background="new    " d="M650,0.3c-32.3,0-48.1,42.2-100,42.2c14.5,0,185.5,0,200,0
	C698.1,42.5,686.5,0.3,650,0.3z"/>
<path opacity="0.75" fill="#1DDEEF" enable-background="new    " d="M800,0.3c-32.3,0-48.1,42.2-100,42.2c14.5,0,185.5,0,200,0
	C848.1,42.5,836.5,0.3,800,0.3z"/>
<path opacity="0.75" fill="#0C7BC0" enable-background="new    " d="M150,0.3c-32.3,0-48.1,42.2-100,42.2c14.5,0,185.5,0,200,0
	C198.1,42.5,186.5,0.3,150,0.3z"/>
<path opacity="0.75" fill="#0C7BC0" enable-background="new    " d="M300,0.3c-32.3,0-48.1,42.2-100,42.2c14.5,0,185.5,0,200,0
	C348.1,42.5,336.5,0.3,300,0.3z"/>
<path opacity="0.75" fill="#0C7BC0" enable-background="new    " d="M450,0.3c-32.3,0-48.1,42.2-100,42.2c14.5,0,185.5,0,200,0
	C498.1,42.5,486.5,0.3,450,0.3z"/>
<path opacity="0.75" fill="#0C7BC0" enable-background="new    " d="M600,0.3c-32.3,0-48.1,42.2-100,42.2c14.5,0,185.5,0,200,0
	C648.1,42.5,636.5,0.3,600,0.3z"/>
<path opacity="0.75" fill="#0C7BC0" enable-background="new    " d="M750,0.3c-32.3,0-48.1,42.2-100,42.2c14.5,0,185.5,0,200,0
	C798.1,42.5,786.5,0.3,750,0.3z"/>
<g opacity="0.5">
	<path opacity="0.75" fill="#002C90" enable-background="new    " d="M800,84.7c32.3,0,48.1-42.2,100-42.2c-14.5,0-185.5,0-200,0
		C751.9,42.5,763.5,84.7,800,84.7z"/>
	<path opacity="0.75" fill="#002C90" enable-background="new    " d="M650,84.7c32.3,0,48.1-42.2,100-42.2c-14.5,0-185.5,0-200,0
		C601.9,42.5,613.5,84.7,650,84.7z"/>
	<path opacity="0.75" fill="#002C90" enable-background="new    " d="M500,84.7c32.3,0,48.1-42.2,100-42.2c-14.5,0-185.5,0-200,0
		C451.9,42.5,463.5,84.7,500,84.7z"/>
	<path opacity="0.75" fill="#002C90" enable-background="new    " d="M350,84.7c32.3,0,48.1-42.2,100-42.2c-14.5,0-185.5,0-200,0
		C301.9,42.5,313.5,84.7,350,84.7z"/>
	<path opacity="0.75" fill="#002C90" enable-background="new    " d="M200,84.7c32.3,0,48.1-42.2,100-42.2c-14.5,0-185.5,0-200,0
		C151.9,42.5,163.5,84.7,200,84.7z"/>
	<path opacity="0.75" fill="#1DDEEF" enable-background="new    " d="M700,84.7c32.3,0,48.1-42.2,100-42.2c-14.5,0-185.5,0-200,0
		C651.9,42.5,663.5,84.7,700,84.7z"/>
	<path opacity="0.75" fill="#1DDEEF" enable-background="new    " d="M550,84.7c32.3,0,48.1-42.2,100-42.2c-14.5,0-185.5,0-200,0
		C501.9,42.5,513.5,84.7,550,84.7z"/>
	<path opacity="0.75" fill="#1DDEEF" enable-background="new    " d="M400,84.7c32.3,0,48.1-42.2,100-42.2c-14.5,0-185.5,0-200,0
		C351.9,42.5,363.5,84.7,400,84.7z"/>
	<path opacity="0.75" fill="#1DDEEF" enable-background="new    " d="M250,84.7c32.3,0,48.1-42.2,100-42.2c-14.5,0-185.5,0-200,0
		C201.9,42.5,213.5,84.7,250,84.7z"/>
	<path opacity="0.75" fill="#1DDEEF" enable-background="new    " d="M100,84.7c32.3,0,48.1-42.2,100-42.2c-14.5,0-185.5,0-200,0
		C51.9,42.5,63.5,84.7,100,84.7z"/>
	<path opacity="0.75" fill="#0C7BC0" enable-background="new    " d="M750,84.7c32.3,0,48.1-42.2,100-42.2c-14.5,0-185.5,0-200,0
		C701.9,42.5,713.5,84.7,750,84.7z"/>
	<path opacity="0.75" fill="#0C7BC0" enable-background="new    " d="M600,84.7c32.3,0,48.1-42.2,100-42.2c-14.5,0-185.5,0-200,0
		C551.9,42.5,563.5,84.7,600,84.7z"/>
	<path opacity="0.75" fill="#0C7BC0" enable-background="new    " d="M450,84.7c32.3,0,48.1-42.2,100-42.2c-14.5,0-185.5,0-200,0
		C401.9,42.5,413.5,84.7,450,84.7z"/>
	<path opacity="0.75" fill="#0C7BC0" enable-background="new    " d="M300,84.7c32.3,0,48.1-42.2,100-42.2c-14.5,0-185.5,0-200,0
		C251.9,42.5,263.5,84.7,300,84.7z"/>
	<path opacity="0.75" fill="#0C7BC0" enable-background="new    " d="M150,84.7c32.3,0,48.1-42.2,100-42.2c-14.5,0-185.5,0-200,0
		C101.9,42.5,113.5,84.7,150,84.7z"/>
</g>
</svg>
