<?xml version="1.0" encoding="utf-8"?>
<!-- Generator: Adobe Illustrator 17.1.0, SVG Export Plug-In . SVG Version: 6.00 Build 0)  -->
<!DOCTYPE svg PUBLIC "-//W3C//DTD SVG 1.1//EN" "http://www.w3.org/Graphics/SVG/1.1/DTD/svg11.dtd">
<svg version="1.1" id="Layer_1" xmlns="http://www.w3.org/2000/svg" xmlns:xlink="http://www.w3.org/1999/xlink" x="0px" y="0px"
	 viewBox="0 0 154 80" enable-background="new 0 0 154 80" xml:space="preserve">
<path fill-rule="evenodd" clip-rule="evenodd" fill="#3E95CD" d="M116.2,20.5C104.8,9.8,92.9,1,77,1C61.1,1,49.2,9.8,37.8,20.5
	C29.1,28.5,21.3,40,0,40c32.6,0,121.4,0,154,0C132.7,40,124.9,28.5,116.2,20.5z"/>
<path fill-rule="evenodd" clip-rule="evenodd" fill="#252E45" d="M116.2,59.5C104.8,70.2,92.9,79,77,79c-15.9,0-27.8-8.8-39.2-19.5
	C29.1,51.5,21.3,40,0,40c32.6,0,121.4,0,154,0C132.7,40,124.9,51.5,116.2,59.5z"/>
</svg>
