<?xml version="1.0" encoding="utf-8"?>
<!-- Generator: Adobe Illustrator 17.1.0, SVG Export Plug-In . SVG Version: 6.00 Build 0)  -->
<!DOCTYPE svg PUBLIC "-//W3C//DTD SVG 1.1//EN" "http://www.w3.org/Graphics/SVG/1.1/DTD/svg11.dtd">
<svg version="1.1" id="Layer_1" xmlns="http://www.w3.org/2000/svg" xmlns:xlink="http://www.w3.org/1999/xlink" x="0px" y="0px"
	 viewBox="0 0 510 130" enable-background="new 0 0 510 130" xml:space="preserve">
<g>
	<g>
		<defs>
			<path id="SVGID_1_" d="M1.4,81.2c0,28.7,22.6,42.6,42.2,42.6s42.2-13.9,42.2-42.6C85.7,45,43.5,4.7,43.5,4.7S1.4,45,1.4,81.2"/>
		</defs>
		<clipPath id="SVGID_2_">
			<use xlink:href="#SVGID_1_"  overflow="visible"/>
		</clipPath>
		
			<linearGradient id="SVGID_3_" gradientUnits="userSpaceOnUse" x1="-168.879" y1="-232.6729" x2="-168.0749" y2="-232.6729" gradientTransform="matrix(0 -104.8819 104.8819 0 24446.7207 -17607.8965)">
			<stop  offset="0" style="stop-color:#32A3CF"/>
			<stop  offset="1" style="stop-color:#8FD6EC"/>
		</linearGradient>
		<rect x="1.4" y="4.7" clip-path="url(#SVGID_2_)" fill="url(#SVGID_3_)" width="84.3" height="119.1"/>
	</g>
</g>
<path fill="#32A3CF" d="M68.1,34.3c-2.2,6.2-9.7,16.4-29,32.6c-15.4,13-28.6,25-32.5,35.7c3.8,6.8,9.3,12,15.5,15.5
	c0.6-1,1.4-2.1,2.4-3.3c10.2-11.7,19.7-19.6,28.7-27.1C70.5,73.4,77.3,62,79.3,54.3C76.2,47.3,72.2,40.5,68.1,34.3"/>
<path fill="#32A3CF" d="M63.6,28c-5-6.8-9.9-12.5-13.6-16.5C46.2,17.9,37.6,27.6,22.2,41C16.1,46.3,11,51.4,6.9,56.3
	c-3.4,8.1-5.6,16.6-5.6,24.9c0,5.4,0.8,10.4,2.3,14.7c4.4-8.2,13.2-18.4,27-30.5C52.2,46.5,61.7,36,63.6,28"/>
<g>
	<g>
		<defs>
			<path id="SVGID_4_" d="M46,63.5C25.5,84,7.7,105.3,18.8,118.1c5.3,6.1,15,6.1,17.7,5.1c-3-1.2-6.2-4.7-0.7-12.3
				c8.9-12.2,17.3-20.5,25.4-28.5c19.2-19,23.3-32.2,22.6-39.2c-0.8-7-10.4-16.9-12.4-18.4C72.7,29.8,68.8,40.7,46,63.5"/>
		</defs>
		<clipPath id="SVGID_5_">
			<use xlink:href="#SVGID_4_"  overflow="visible"/>
		</clipPath>
		
			<linearGradient id="SVGID_6_" gradientUnits="userSpaceOnUse" x1="-168.5836" y1="-232.8243" x2="-167.8056" y2="-232.8243" gradientTransform="matrix(0 -86.1285 86.1285 0 20099.8125 -14419.2734)">
			<stop  offset="0" style="stop-color:#8FD6EC"/>
			<stop  offset="1" style="stop-color:#BBE4EF"/>
		</linearGradient>
		<rect x="9.4" y="24.8" clip-path="url(#SVGID_5_)" fill="url(#SVGID_6_)" width="75.2" height="98.6"/>
	</g>
</g>
<g>
	<g>
		<defs>
			<path id="SVGID_7_" d="M26.4,39.9C6.4,60.6-1.4,77.8,0.2,90.5c1.5,12.6,7.4,17.8,12,20.1c-5.1-7.3,1.4-24.1,24.3-48
				c24.3-25.3,31.1-36,28.3-44.3C62.9,12.9,56.2,6,52.6,2.7C52.8,7.7,45.9,19.6,26.4,39.9"/>
		</defs>
		<clipPath id="SVGID_8_">
			<use xlink:href="#SVGID_7_"  overflow="visible"/>
		</clipPath>
		
			<linearGradient id="SVGID_9_" gradientUnits="userSpaceOnUse" x1="-168.5534" y1="-232.7807" x2="-167.7754" y2="-232.7807" gradientTransform="matrix(0 -81.8338 81.8338 0 19083.2285 -13704.999)">
			<stop  offset="0" style="stop-color:#8FD6EC"/>
			<stop  offset="1" style="stop-color:#BBE4EF"/>
		</linearGradient>
		<rect x="0.2" y="2.7" clip-path="url(#SVGID_8_)" fill="url(#SVGID_9_)" width="67.4" height="107.4"/>
	</g>
</g>
<path opacity="0.5" fill="#71CDE5" enable-background="new    " d="M36.5,62.7c0.9-0.9,1.8-1.9,2.6-2.8c-0.8,0.8-1.6,1.6-2.6,2.3
	C14.6,79.1,5.4,92.1,6.3,106c1.6,1.9,3.4,3.2,5,4.2h0.6C7.4,102.6,14.1,86,36.5,62.7z"/>
<g>
	<polygon fill="#FFFFFF" points="143.4,32.1 153.1,32.1 168.9,87.1 185.1,32.1 195.9,32.1 174.6,102.6 163.6,102.6 	"/>
	<polygon fill="#FFFFFF" points="109.6,32.1 120.7,32.1 136.7,87 152.7,32.1 162.4,32.1 141.9,102.6 130.8,102.6 	"/>
	<path fill="#FFFFFF" d="M226.5,72.9c0-6,0.4-11.2-7.2-11.2c-7.8,0-15,5.5-15,5.5l-2.7-7.8c0,0,8.1-6,20.6-6
		c11.2,0,14.8,4.6,14.8,15.2v20c0,5.9,5.2,6,5.2,6l-3.1,8.2c-7.2-0.5-10.3-3.6-11.6-7.3c-1.3,2-6.1,7.9-15.3,7.9
		c-8.3,0-13.6-5.1-13.6-12.2C198.4,81.2,208.8,75.2,226.5,72.9 M226.5,87.8v-8.2c-12.1,1.8-17.4,5.2-17.4,10.8
		c0,3.4,2.5,4.7,5.6,4.7C219.5,95.2,223.4,91.5,226.5,87.8"/>
	<path fill="#FFFFFF" d="M254.7,62.6h-7v-5.7l7.2-2.6V43.5l10.2-2.2v13.4h15v7.9h-15v24c0,5.8,2,8.1,5.5,8.1c4,0,8.4-3.5,9.6-4.2
		l2.6,7.9c0,0-6.2,5-14.6,5c-8.2,0-13.5-4.4-13.5-14.2L254.7,62.6L254.7,62.6z"/>
	<path fill="#FFFFFF" d="M311.9,53.4c11.3,0,19.5,7.8,19.5,22.1l-6,1.7l-25.9,3.5c1.2,8.6,6.4,14.2,14.7,14.2c8,0,14.6-5.9,14.6-5.9
		l2.9,7.5c0,0-7.2,6.8-19.1,6.8c-15.8,0-23.9-11.5-23.9-24.2C288.7,64.7,298,53.4,311.9,53.4 M299.5,73.8l20.6-2.6
		c0,0-0.6-9.6-8.9-9.6C304.4,61.5,300.4,66.9,299.5,73.8"/>
	<path fill="#FFFFFF" d="M343,55.5l10.2-1.7v9.5c1.9-3.3,6.7-10,13.9-10c2.6,0,4.1,0.8,4.1,0.8l-2.1,10.5c0,0-2.1-0.8-4.2-0.8
		c-5.2,0-9.5,5.7-11.5,8.8V102H343V55.5z"/>
</g>
<g>
	<path fill="#FFFFFF" d="M384.3,32h19.9c19.1,0,39,9,39,33.9c0,23.5-17.6,36.1-43,36.1h-15.9V32z M399.2,96.2
		c26.9,0,36.6-13,36.6-29.3c0-17.8-11.6-29.2-33-29.2h-11.5v58.4h7.9V96.2z"/>
	<path fill="#FFFFFF" d="M459.9,32h16.5c18,0,23.7,8.7,23.7,16.8c0,7.7-4.9,12.9-8.5,15.7c3.8,1.3,12.9,5.2,12.9,17.1
		c0,12.4-9.9,20.3-23.9,20.3h-20.7V32z M466.8,62.9h17c0,0,8.8-4.5,8.8-13.9c0-6.2-3.9-11.1-17.8-11.1h-8V62.9z M479,96.2
		c12.4,0,17.9-5.5,17.9-13.6c0-8.2-5.5-13.8-17.9-13.8h-12.2v27.5L479,96.2L479,96.2z"/>
</g>
</svg>
