<?xml version="1.0" encoding="utf-8"?>
<!-- Generator: Adobe Illustrator 17.1.0, SVG Export Plug-In . SVG Version: 6.00 Build 0)  -->
<!DOCTYPE svg PUBLIC "-//W3C//DTD SVG 1.1//EN" "http://www.w3.org/Graphics/SVG/1.1/DTD/svg11.dtd">
<svg version="1.1" id="Layer_1" xmlns="http://www.w3.org/2000/svg" xmlns:xlink="http://www.w3.org/1999/xlink" x="0px" y="0px"
	 viewBox="-40 27.5 200 65" enable-background="new -40 27.5 200 65" xml:space="preserve">
<g>
	<g>
		<g>
			<defs>
				<path id="SVGID_1_" d="M-36.2,69.3c0,14.8,11.7,22,21.8,22s21.8-7.2,21.8-22C7.4,50.6-14.4,29.8-14.4,29.8S-36.2,50.6-36.2,69.3
					"/>
			</defs>
			<clipPath id="SVGID_2_">
				<use xlink:href="#SVGID_1_"  overflow="visible"/>
			</clipPath>
			
				<linearGradient id="SVGID_3_" gradientUnits="userSpaceOnUse" x1="-169.3654" y1="353.6709" x2="-167.5999" y2="353.6709" gradientTransform="matrix(0 -24.6781 -24.6781 0 8713.541 -4098.3286)">
				<stop  offset="0" style="stop-color:#32A3CF"/>
				<stop  offset="1" style="stop-color:#8FD6EC"/>
			</linearGradient>
			<rect x="-36.2" y="29.8" clip-path="url(#SVGID_2_)" fill="url(#SVGID_3_)" width="43.6" height="61.5"/>
		</g>
	</g>
</g>
<path fill="#32A3CF" d="M-1.7,45c-1.1,3.2-5,8.5-15,16.8c-8,6.7-14.8,12.9-16.8,18.4c2,3.5,4.8,6.2,8,8c0.3-0.5,0.7-1.1,1.2-1.7
	c5.3-6,10.2-10.1,14.8-14c8.9-7.4,12.5-13.3,13.5-17.3C2.5,51.8,0.4,48.2-1.7,45"/>
<path fill="#32A3CF" d="M-4,41.8c-2.6-3.5-5.1-6.5-7-8.5c-2,3.3-6.4,8.3-14.4,15.2c-3.2,2.7-5.8,5.4-7.9,7.9
	c-1.8,4.2-2.9,8.6-2.9,12.9c0,2.8,0.4,5.4,1.2,7.6c2.3-4.2,6.8-9.5,13.9-15.8C-9.9,51.3-5,45.9-4,41.8"/>
<g>
	<g>
		<g>
			<defs>
				<path id="SVGID_4_" d="M-13.1,60.1c-10.6,10.6-19.8,21.6-14.1,28.2c2.7,3.2,7.7,3.2,9.1,2.6c-1.5-0.6-3.2-2.4-0.4-6.4
					c4.6-6.3,8.9-10.6,13.1-14.7c9.9-9.8,12-16.6,11.7-20.3C6,46,1,40.9,0,40.1C0.7,42.7-1.3,48.4-13.1,60.1"/>
			</defs>
			<clipPath id="SVGID_5_">
				<use xlink:href="#SVGID_4_"  overflow="visible"/>
			</clipPath>
			
				<linearGradient id="SVGID_6_" gradientUnits="userSpaceOnUse" x1="-169.1221" y1="353.9918" x2="-167.4139" y2="353.9918" gradientTransform="matrix(0 -20.2655 -20.2655 0 7161.2314 -3348.0645)">
				<stop  offset="0" style="stop-color:#8FD6EC"/>
				<stop  offset="1" style="stop-color:#BBE4EF"/>
			</linearGradient>
			<rect x="-32" y="40.1" clip-path="url(#SVGID_5_)" fill="url(#SVGID_6_)" width="38.8" height="50.9"/>
		</g>
	</g>
</g>
<g>
	<g>
		<g>
			<defs>
				<path id="SVGID_7_" d="M-23.2,47.9c-10.3,10.7-14.4,19.6-13.5,26.1c0.8,6.5,3.8,9.2,6.2,10.4C-33.2,80.7-29.9,72-18,59.7
					C-5.5,46.6-2,41.1-3.4,36.8c-1-2.8-4.4-6.4-6.3-8.1C-9.6,31.3-13.2,37.4-23.2,47.9"/>
			</defs>
			<clipPath id="SVGID_8_">
				<use xlink:href="#SVGID_7_"  overflow="visible"/>
			</clipPath>
			
				<linearGradient id="SVGID_9_" gradientUnits="userSpaceOnUse" x1="-168.9418" y1="354.2007" x2="-167.2336" y2="354.2007" gradientTransform="matrix(0 -19.255 -19.255 0 6800.7729 -3179.9998)">
				<stop  offset="0" style="stop-color:#8FD6EC"/>
				<stop  offset="1" style="stop-color:#BBE4EF"/>
			</linearGradient>
			<rect x="-36.8" y="28.7" clip-path="url(#SVGID_8_)" fill="url(#SVGID_9_)" width="34.8" height="55.5"/>
		</g>
	</g>
</g>
<path opacity="0.5" fill="#71CDE5" enable-background="new    " d="M-18,59.7c0.5-0.5,0.9-1,1.3-1.4c-0.4,0.4-0.8,0.8-1.3,1.2
	c-11.3,8.7-16.1,15.4-15.6,22.6c0.8,1,1.8,1.7,2.6,2.2h0.3C-33.1,80.3-29.6,71.8-18,59.7z"/>
<g>
	<polygon fill="#FFFFFF" points="29.7,50.5 33.1,50.5 38.7,69.9 44.4,50.5 48.2,50.5 40.7,75.4 36.8,75.4 	"/>
	<polygon fill="#FFFFFF" points="17.8,50.5 21.7,50.5 27.3,69.9 32.9,50.5 36.4,50.5 29.1,75.4 25.2,75.4 	"/>
	<path fill="#FFFFFF" d="M58.9,64.9c0-2.1,0.1-3.9-2.5-3.9c-2.7,0-5.3,1.9-5.3,1.9l-1-2.7c0,0,2.9-2.1,7.3-2.1
		c3.9,0,5.2,1.6,5.2,5.4v7c0,2.1,1.8,2.1,1.8,2.1l-1.1,2.9c-2.5-0.2-3.6-1.3-4.1-2.6c-0.5,0.7-2.1,2.8-5.4,2.8
		c-2.9,0-4.8-1.8-4.8-4.3C49,67.8,52.7,65.7,58.9,64.9 M58.9,70.1v-2.9c-4.3,0.6-6.1,1.8-6.1,3.8c0,1.2,0.9,1.7,2,1.7
		C56.5,72.8,57.9,71.4,58.9,70.1"/>
	<path fill="#FFFFFF" d="M68.9,61.3h-2.5v-2l2.5-0.9v-3.8l3.6-0.8v4.7h5.3v2.8h-5.3v8.5c0,2,0.7,2.9,1.9,2.9c1.4,0,3-1.2,3.4-1.5
		l0.9,2.8c0,0-2.2,1.8-5.1,1.8c-2.9,0-4.8-1.6-4.8-5V61.3L68.9,61.3z"/>
	<path fill="#FFFFFF" d="M89,58c4,0,6.9,2.7,6.9,7.8l-2.1,0.6l-9.1,1.2c0.4,3,2.3,5,5.2,5c2.8,0,5.1-2.1,5.1-2.1l1,2.6
		c0,0-2.5,2.4-6.7,2.4c-5.6,0-8.4-4.1-8.4-8.5C80.9,62,84.1,58,89,58 M84.7,65.2l7.3-0.9c0,0-0.2-3.4-3.1-3.4
		C86.4,60.9,85,62.8,84.7,65.2"/>
	<path fill="#FFFFFF" d="M100,58.8l3.6-0.6v3.3c0.7-1.2,2.4-3.5,4.9-3.5c0.9,0,1.4,0.3,1.4,0.3l-0.7,3.7c0,0-0.7-0.3-1.5-0.3
		c-1.8,0-3.3,2-4.1,3.1v10.4H100V58.8z"/>
</g>
<g>
	<path fill="#FFFFFF" d="M114.5,50.5h7c6.7,0,13.7,3.2,13.7,11.9c0,8.3-6.2,12.7-15.1,12.7h-5.6V50.5z M119.8,73.1
		c9.5,0,12.9-4.6,12.9-10.3c0-6.3-4.1-10.3-11.6-10.3H117v20.6L119.8,73.1L119.8,73.1z"/>
	<path fill="#FFFFFF" d="M141.2,50.5h5.8c6.3,0,8.3,3.1,8.3,5.9c0,2.7-1.7,4.5-3,5.5c1.3,0.5,4.5,1.8,4.5,6c0,4.4-3.5,7.2-8.4,7.2
		h-7.3V50.5z M143.6,61.4h6c0,0,3.1-1.6,3.1-4.9c0-2.2-1.4-3.9-6.3-3.9h-2.8V61.4z M147.9,73.1c4.4,0,6.3-1.9,6.3-4.8
		c0-2.9-1.9-4.9-6.3-4.9h-4.3v9.7L147.9,73.1L147.9,73.1z"/>
</g>
</svg>
