<?xml version="1.0" encoding="utf-8"?>
<!-- Generator: Adobe Illustrator 17.1.0, SVG Export Plug-In . SVG Version: 6.00 Build 0)  -->
<!DOCTYPE svg PUBLIC "-//W3C//DTD SVG 1.1//EN" "http://www.w3.org/Graphics/SVG/1.1/DTD/svg11.dtd">
<svg version="1.1" id="Layer_1" xmlns="http://www.w3.org/2000/svg" xmlns:xlink="http://www.w3.org/1999/xlink" x="0px" y="0px"
	 viewBox="0 0 120 120" enable-background="new 0 0 120 120" xml:space="preserve">
<circle fill="#0C7BC0" cx="60" cy="60" r="60"/>
<path opacity="0.3" fill-rule="evenodd" clip-rule="evenodd" fill="#002C90" d="M117.6,76.9L78,37.4L60.3,56.1l5.6,63.6
	C90.5,117.3,110.8,100,117.6,76.9z"/>
<polygon opacity="0.3" fill-rule="evenodd" clip-rule="evenodd" fill="#002C90" points="43.8,67.7 56.1,80.1 49.9,63.2 "/>
<path fill-rule="evenodd" clip-rule="evenodd" fill="#FFFFFF" d="M77.8,57.4C76.6,70.9,65,80.2,60.3,80.2
	c-6.4,0-16.3-10.2-17.5-22.8C41.7,45,43.7,32,60.3,32S78.8,44.2,77.8,57.4z"/>
<path fill-rule="evenodd" clip-rule="evenodd" fill="#FFFFFF" d="M42.9,57.4c-0.2-2.7-2.9-1.8-1.8,2c1.1,3.8,1.1,8.5,4.4,8.4
	C48.9,67.6,42.9,57.4,42.9,57.4z"/>
<path fill-rule="evenodd" clip-rule="evenodd" fill="#FFFFFF" d="M77.1,57.4c0.2-2.7,2.9-1.8,1.8,2c-1.1,3.8-1.1,8.5-4.4,8.4
	C71.1,67.6,77.1,57.4,77.1,57.4z"/>
<path fill-rule="evenodd" clip-rule="evenodd" fill="#FFFFFF" d="M46.5,37.6c0-3.8,5.4-8.6,7.8-8c3.7,0.9,6.7-0.8,9.9,0
	c3.2,0.8,11.4,4,13.7,7.9c2.5,4.1-0.2,10.3-0.2,20c0,4.5-8.6-2.2-8.6-2.2L46.5,37.6z"/>
<path fill-rule="evenodd" clip-rule="evenodd" fill="#FFFFFF" d="M46.5,37.6c0,0-1.7-1.2-3.9,1.9c-2.2,3.1-0.4,12,2.2,21.4
	C45.8,64.5,46.5,37.6,46.5,37.6z"/>
<path fill-rule="evenodd" clip-rule="evenodd" fill="#FFFFFF" d="M95,92.5c-3-0.5-22.8-4.8-24.3-7.5s-1.6-10.8-1.6-10.8L62,74
	c0,0,0,0,0,0l-2,0l-2,0c0,0,0,0,0,0l-7.1,0.1c0,0-0.1,8.1-1.6,10.8S28,92,25,92.5s-5.6,4.3-5.5,11.3c0,0.2,0,0.4,0.1,0.7
	c3.2,2.9,6.8,5.5,10.6,7.7c7.9,3.5,18.5,6.5,26.1,7.6c0.1,0.1,0.2,0.1,0.3,0.2c1.1,0.1,2.2,0.1,3.4,0.1c1.1,0,2.3,0,3.4-0.1
	c0.1-0.1,0.2-0.1,0.3-0.2c7.6-1.2,18.2-4.2,26.1-7.6c3.8-2.2,7.4-4.7,10.6-7.7c0.1-0.2,0.1-0.4,0.1-0.7C100.6,96.7,98,93,95,92.5z"
	/>
<path fill-rule="evenodd" clip-rule="evenodd" fill="#1DDEEF" d="M46.2,83.8l-3.5,3c0,0-15.3,5.6-18.4,5.9
	c-3.1,0.3-4.8,6.8-4.8,11.1c0,0.2,0,0.4,0.1,0.6C30.3,114.1,44.5,120,60,120c3,0,5.9-0.2,8.8-0.6C75,111.8,59,93.2,59,93.2
	L46.2,83.8z"/>
<path fill-rule="evenodd" clip-rule="evenodd" fill="#1DDEEF" d="M95.5,92.7c-3.1-0.3-18.4-5.9-18.4-5.9l-3.5-3L61,93.2
	c0,0-15.9,18.6-9.7,26.1c2.8,0.4,5.7,0.6,8.7,0.6c15.5,0,29.6-5.9,40.2-15.5c0.1-0.3,0.1-0.5,0.1-0.8C100.3,99.5,98.5,93,95.5,92.7z
	"/>
<path fill-rule="evenodd" clip-rule="evenodd" fill="#002C90" d="M18.7,103.5c8.4,8,19.2,13.6,31.1,15.6L42.5,87h-2
	c-4.6,1-14.8,4.6-17.2,4.9C20.7,92.2,19.1,98.8,18.7,103.5z"/>
<path fill-rule="evenodd" clip-rule="evenodd" fill="#002C90" d="M96.5,91.9C94.1,91.6,83.9,88,79.3,87h-2L70,119.2
	c12-2,22.8-7.6,31.2-15.6c0-0.2,0-0.4,0-0.7C101.2,98.6,99.6,92.2,96.5,91.9z"/>
</svg>
