<?xml version="1.0" encoding="utf-8"?>
<!-- Generator: Adobe Illustrator 17.1.0, SVG Export Plug-In . SVG Version: 6.00 Build 0)  -->
<!DOCTYPE svg PUBLIC "-//W3C//DTD SVG 1.1//EN" "http://www.w3.org/Graphics/SVG/1.1/DTD/svg11.dtd">
<svg version="1.1" id="Layer_1" xmlns="http://www.w3.org/2000/svg" xmlns:xlink="http://www.w3.org/1999/xlink" x="0px" y="0px"
	 viewBox="260 0 85 85" enable-background="new 260 0 85 85" xml:space="preserve">
<path fill="#FFFFFF" d="M317.4,16.8v42.2c0,8.2-6.7,14.9-14.9,14.9s-14.9-6.7-14.9-14.9V16.8c0-3.1,2.5-5.6,5.6-5.6
	c3.1,0,5.6,2.5,5.6,5.6v44.6h7.4V15.9h0c-0.5-6.8-6.1-12.1-13-12.1c-6.9,0-12.5,5.4-13,12.1h0v45.5h0.1
	c1.2,11.1,10.7,19.8,22.2,19.8s20.9-8.7,22.2-19.8h0.1V15.9h0"/>
</svg>
