<?xml version="1.0" encoding="utf-8"?>
<!-- Generator: Adobe Illustrator 17.1.0, SVG Export Plug-In . SVG Version: 6.00 Build 0)  -->
<!DOCTYPE svg PUBLIC "-//W3C//DTD SVG 1.1//EN" "http://www.w3.org/Graphics/SVG/1.1/DTD/svg11.dtd">
<svg version="1.1" id="Layer_1" xmlns="http://www.w3.org/2000/svg" xmlns:xlink="http://www.w3.org/1999/xlink" x="0px" y="0px"
	 viewBox="0 0 120 120" enable-background="new 0 0 120 120" xml:space="preserve">
<circle fill="#0C7BC0" cx="60" cy="60" r="60"/>
<path opacity="0.3" fill="#002C90" enable-background="new    " d="M119.1,70.1L77.3,28.3L27.5,94.5l25,25c2.5,0.3,4.9,0.5,7.5,0.5
	C89.7,120,114.3,98.4,119.1,70.1z"/>
<polygon fill="#FFFFFF" points="60.5,28.2 42.5,28.2 42.5,58.5 60.5,58.5 77.5,58.5 77.5,28.2 "/>
<polygon fill="#002C90" points="57.5,86 92.5,86 81.5,58.5 57.5,58.5 "/>
<rect x="57.5" y="86" fill="#001F5E" width="35" height="8.5"/>
<rect x="84.2" y="48.8" fill="#002C90" width="2.3" height="7.2"/>
<polygon fill="#002C90" points="62.5,86 27.5,86 38.5,58.5 62.5,58.5 "/>
<ellipse fill="#FFFFFF" cx="60" cy="58.4" rx="7.9" ry="4.4"/>
<rect x="27.5" y="86" fill="#001F5E" width="35" height="8.5"/>
<rect x="33.5" y="48.8" fill="#002C90" width="2.3" height="7.2"/>
<g>
	<g>
		<path fill="#001F5E" d="M39.1,77.5c0-1.4-1.9-2.5-4.3-2.5s-4.3,1.1-4.3,2.5c0,0.4,0,1.6,0,2c0,1.4,1.9,2.5,4.3,2.5
			s4.3-1.1,4.3-2.5C39.1,79.1,39.1,77.9,39.1,77.5z"/>
		<ellipse fill="#0C7BC0" cx="34.8" cy="77.5" rx="4.3" ry="2.5"/>
		<ellipse fill="#1DDEEF" cx="34.8" cy="77.5" rx="2.3" ry="1.3"/>
	</g>
	<g>
		<path fill="#001F5E" d="M52.1,77.5c0-1.4-1.9-2.5-4.3-2.5s-4.3,1.1-4.3,2.5c0,0.4,0,1.6,0,2c0,1.4,1.9,2.5,4.3,2.5
			s4.3-1.1,4.3-2.5C52.1,79.1,52.1,77.9,52.1,77.5z"/>
		<ellipse fill="#0C7BC0" cx="47.8" cy="77.5" rx="4.3" ry="2.5"/>
		<ellipse fill="#1DDEEF" cx="47.8" cy="77.5" rx="2.3" ry="1.3"/>
	</g>
	<g>
		<path fill="#001F5E" d="M46.1,69.5c0-1.4-1.9-2.5-4.3-2.5s-4.3,1.1-4.3,2.5c0,0.4,0,1.6,0,2c0,1.4,1.9,2.5,4.3,2.5
			s4.3-1.1,4.3-2.5C46.1,71.1,46.1,69.9,46.1,69.5z"/>
		<ellipse fill="#0C7BC0" cx="41.8" cy="69.5" rx="4.3" ry="2.5"/>
		<ellipse fill="#1DDEEF" cx="41.8" cy="69.5" rx="2.3" ry="1.3"/>
	</g>
	<g>
		<path fill="#001F5E" d="M58.1,69.5c0-1.4-1.9-2.5-4.3-2.5s-4.3,1.1-4.3,2.5c0,0.4,0,1.6,0,2c0,1.4,1.9,2.5,4.3,2.5
			s4.3-1.1,4.3-2.5C58.1,71.1,58.1,69.9,58.1,69.5z"/>
		<ellipse fill="#0C7BC0" cx="53.8" cy="69.5" rx="4.3" ry="2.5"/>
		<ellipse fill="#1DDEEF" cx="53.8" cy="69.5" rx="2.3" ry="1.3"/>
	</g>
	<g>
		<path fill="#001F5E" d="M64.1,77.5c0-1.4-1.9-2.5-4.3-2.5s-4.3,1.1-4.3,2.5c0,0.4,0,1.6,0,2c0,1.4,1.9,2.5,4.3,2.5
			s4.3-1.1,4.3-2.5C64.1,79.1,64.1,77.9,64.1,77.5z"/>
		<ellipse fill="#0C7BC0" cx="59.8" cy="77.5" rx="4.3" ry="2.5"/>
		<ellipse fill="#1DDEEF" cx="59.8" cy="77.5" rx="2.3" ry="1.3"/>
	</g>
	<g>
		<path fill="#001F5E" d="M80.9,77.5c0-1.4,1.9-2.5,4.3-2.5s4.3,1.1,4.3,2.5c0,0.4,0,1.6,0,2c0,1.4-1.9,2.5-4.3,2.5
			s-4.3-1.1-4.3-2.5C80.9,79.1,80.9,77.9,80.9,77.5z"/>
		<ellipse fill="#0C7BC0" cx="85.2" cy="77.5" rx="4.3" ry="2.5"/>
		<ellipse fill="#1DDEEF" cx="85.2" cy="77.5" rx="2.3" ry="1.3"/>
	</g>
	<g>
		<path fill="#001F5E" d="M67.9,77.5c0-1.4,1.9-2.5,4.3-2.5s4.3,1.1,4.3,2.5c0,0.4,0,1.6,0,2c0,1.4-1.9,2.5-4.3,2.5
			s-4.3-1.1-4.3-2.5C67.9,79.1,67.9,77.9,67.9,77.5z"/>
		<ellipse fill="#0C7BC0" cx="72.2" cy="77.5" rx="4.3" ry="2.5"/>
		<ellipse fill="#1DDEEF" cx="72.2" cy="77.5" rx="2.3" ry="1.3"/>
	</g>
	<g>
		<path fill="#001F5E" d="M73.9,69.5c0-1.4,1.9-2.5,4.3-2.5s4.3,1.1,4.3,2.5c0,0.4,0,1.6,0,2c0,1.4-1.9,2.5-4.3,2.5
			s-4.3-1.1-4.3-2.5C73.9,71.1,73.9,69.9,73.9,69.5z"/>
		<ellipse fill="#0C7BC0" cx="78.2" cy="69.5" rx="4.3" ry="2.5"/>
		<ellipse fill="#1DDEEF" cx="78.2" cy="69.5" rx="2.3" ry="1.3"/>
	</g>
	<g>
		<path fill="#001F5E" d="M61.9,69.5c0-1.4,1.9-2.5,4.3-2.5s4.3,1.1,4.3,2.5c0,0.4,0,1.6,0,2c0,1.4-1.9,2.5-4.3,2.5
			s-4.3-1.1-4.3-2.5C61.9,71.1,61.9,69.9,61.9,69.5z"/>
		<ellipse fill="#0C7BC0" cx="66.2" cy="69.5" rx="4.3" ry="2.5"/>
		<ellipse fill="#1DDEEF" cx="66.2" cy="69.5" rx="2.3" ry="1.3"/>
	</g>
</g>
<polygon fill="#002C90" points="36.8,47.5 36.8,57 58.5,57 61.5,57 83.2,57 83.2,47.5 "/>
</svg>
