<?xml version="1.0" encoding="utf-8"?>
<!-- Generator: Adobe Illustrator 17.1.0, SVG Export Plug-In . SVG Version: 6.00 Build 0)  -->
<!DOCTYPE svg PUBLIC "-//W3C//DTD SVG 1.1//EN" "http://www.w3.org/Graphics/SVG/1.1/DTD/svg11.dtd">
<svg version="1.1" id="Layer_1" xmlns="http://www.w3.org/2000/svg" xmlns:xlink="http://www.w3.org/1999/xlink" x="0px" y="0px"
	 viewBox="0 0 120 120" enable-background="new 0 0 120 120" xml:space="preserve">
<circle fill="#0C7BC0" cx="60" cy="60" r="60"/>
<path opacity="0.3" fill="#002C90" enable-background="new    " d="M117,78.9L94.3,56.2l-1.6,9.4L62.3,35.2l-0.2,1.1L44.2,18.4
	L26,63.2l53.5,53.5C97.2,110.7,111.1,96.6,117,78.9z"/>
<path fill="#001F5E" d="M61.5,85.8c1.9,0,7.7,0,13.8,0c-0.3,1.5-0.6,2.9-0.8,4.4c-0.2,1.6-0.6,3.2-0.4,4.9c0.2,1.9,0.4,3.4,1.3,5.4
	c0.5,1.2,1.4,1.7,2.7,1.6c2.1-0.1,2-1.1,2.3-2.3c0.4-1.8,1.3-6.2,1.9-7.2c0.9-1.7,1.8-3.4,2.9-5.1c2.1-3.2,3.9-6.8,7.2-9.1
	c1.2-0.3,1.6-1.1,1.6-2.4c-0.1-4.5,0-11.4,0-15.9c0-1.1,0-2.3,0-3.4c0-0.7-0.3-1-0.9-0.9c-0.2,0-0.4,0-0.6,0.1
	c-0.8-0.1-1.4-0.5-2.1-0.9c-0.9-0.5-1.7-1.1-2.8-1.1c0,0-0.1,0-0.1,0c0,0,0,0,0,0c-5.4,0-17.5,0-22.3,0s-5.1,1.5-6,4.2
	s-2.4,19.6-2.4,22.6C56.7,83.7,58.5,85.8,61.5,85.8z"/>
<path fill="#002C90" d="M61.5,85.8c1.8,0,7,0,12.6,0V53.9c-3.6,0-7,0-9,0c-4.8,0-5.1,1.5-6,4.2s-2.4,19.6-2.4,22.6
	C56.7,83.7,58.5,85.8,61.5,85.8z"/>
<path fill="#FDFDFD" d="M58.5,34.2c-1.9,0-7.7,0-13.8,0c0.3-1.5,0.6-2.9,0.8-4.4c0.2-1.6,0.6-3.2,0.4-4.9c-0.2-1.9-0.4-3.4-1.3-5.4
	c-0.5-1.2-1.4-1.7-2.7-1.6c-2.1,0.1-2,1.1-2.3,2.3c-0.4,1.8-1.3,6.2-1.9,7.2c-0.9,1.7-1.8,3.4-2.9,5.1c-2.1,3.2-3.9,6.8-7.2,9.1
	c-1.2,0.3-1.6,1.1-1.6,2.4c0.1,4.5,0,11.4,0,15.9c0,1.1,0,2.3,0,3.4c0,0.7,0.3,1,0.9,0.9c0.2,0,0.4,0,0.6-0.1
	c0.8,0.1,1.4,0.5,2.1,0.9c0.9,0.5,1.7,1.1,2.8,1.1c0,0,0.1,0,0.1,0c0,0,0,0,0,0c5.4,0,17.5,0,22.3,0s5.1-1.5,6-4.2
	c0.9-2.7,2.4-19.6,2.4-22.6S61.5,34.2,58.5,34.2z"/>
<path fill="#EFEFEF" d="M58.5,34.2c-1.8,0-7,0-12.6,0v31.9c3.6,0,7,0,9,0c4.8,0,5.1-1.5,6-4.2c0.9-2.7,2.4-19.6,2.4-22.6
	S61.5,34.2,58.5,34.2z"/>
</svg>
