<?xml version="1.0" encoding="utf-8"?>
<!-- Generator: Adobe Illustrator 17.1.0, SVG Export Plug-In . SVG Version: 6.00 Build 0)  -->
<!DOCTYPE svg PUBLIC "-//W3C//DTD SVG 1.1//EN" "http://www.w3.org/Graphics/SVG/1.1/DTD/svg11.dtd">
<svg version="1.1" id="Layer_1" xmlns="http://www.w3.org/2000/svg" xmlns:xlink="http://www.w3.org/1999/xlink" x="0px" y="0px"
	 viewBox="0 0 120 120" enable-background="new 0 0 120 120" xml:space="preserve">
<circle fill="#0C7BC0" cx="60" cy="60" r="60"/>
<path opacity="0.3" fill="#002C90" enable-background="new    " d="M119.7,66.3L89.1,35.7L42,106l13.8,13.8c1.4,0.1,2.8,0.2,4.2,0.2
	C91,120,116.5,96.5,119.7,66.3z"/>
<polygon fill="#002C90" points="77.5,84 42,106 19.5,68 54.8,45.5 "/>
<circle fill="#002C90" cx="75.4" cy="81.2" r="7.4"/>
<circle fill="#001F5E" cx="75.4" cy="81.2" r="5"/>
<polygon fill="#001F5E" points="67,74 71.7,84 76.5,85 80,81.5 73.5,70.5 "/>
<polygon fill="#001F5E" points="77.5,84 111,82 88.5,44 54.8,45.5 "/>
<g>
	<path fill="#BCBCBC" d="M85.1,35.8c0.1,0.2,0.1,1.3,0.1,1.3L85.1,35.8c-0.7-1.3-8.9-8-19.5-4.9C53.1,34.7,55,44.1,55,44.1
		l20.8,36.6c0,0,5.5-11.2,15.6-12.2c8.8-0.8,11.9,4.5,12.5,5.9L85.1,35.8z"/>
	<path fill="#BCBCBC" d="M103.9,66.4l0.1,0.3C104,66.7,104,66.6,103.9,66.4z"/>
</g>
<g>
	<path fill="#D8D8D8" d="M54.9,44.6c0.1,0.2-0.9,0.3-0.9,0.3l-0.1-0.3c-0.7-1.3-1.4-7-11.8-3.9c-12.3,3.7-15.9,20.2-15.9,20.2
		l18.5,35.6c0,0,8.1-17,17.9-19.2c10.6-2.3,12.2,1.5,12.8,2.9L54.9,44.6z"/>
	<path fill="#D8D8D8" d="M75.4,80.2l0.1,0.3C75.5,80.5,75.5,80.4,75.4,80.2z"/>
</g>
<g>
	<path fill="#FFFFFF" d="M54.4,44.6c0.1,0.2,0.1,0.3,0.1,0.3L54.4,44.6c-0.7-1.3-4.9-10-16.9-6.9c-14,3.7-18,20.2-18,20.2l21,35.6
		c0,0,6.9-18,18-20.2c12.1-2.3,16.1,5.5,16.9,6.9L54.4,44.6z"/>
	<path fill="#FFFFFF" d="M75.4,80.2l0.1,0.3C75.5,80.5,75.5,80.4,75.4,80.2z"/>
</g>
<g>
	<path fill="#E5E5E5" d="M88.9,35.8C89,36,89,37.1,89,37.1L88.9,35.8c-0.7-1.3-9.9-10-21.9-6.9c-14,3.7-13,15.2-13,15.2l21,35.6
		c0,0,1.9-13,13-15.2c12.1-2.3,21.1,6.5,21.9,7.9L88.9,35.8z"/>
	<path fill="#E5E5E5" d="M109.9,66.4l0.1,0.3C110,66.7,110,66.6,109.9,66.4z"/>
</g>
</svg>
