<?xml version="1.0" encoding="utf-8"?>
<!-- Generator: Adobe Illustrator 17.1.0, SVG Export Plug-In . SVG Version: 6.00 Build 0)  -->
<!DOCTYPE svg PUBLIC "-//W3C//DTD SVG 1.1//EN" "http://www.w3.org/Graphics/SVG/1.1/DTD/svg11.dtd">
<svg version="1.1" id="Layer_1" xmlns="http://www.w3.org/2000/svg" xmlns:xlink="http://www.w3.org/1999/xlink" x="0px" y="0px"
	 viewBox="0 0 120 120" enable-background="new 0 0 120 120" xml:space="preserve">
<circle fill="#0C7BC0" cx="60" cy="60" r="60"/>
<path opacity="0.3" fill-rule="evenodd" clip-rule="evenodd" fill="#002C90" d="M106,98.5L57.2,49.7L21.6,88.2l31.4,31.4
	c2.3,0.3,4.7,0.4,7.1,0.4C78.5,120,95,111.6,106,98.5z"/>
<path opacity="0.3" fill-rule="evenodd" clip-rule="evenodd" fill="#002C90" d="M68.6,52.2l41.2,41.2C116.2,83.9,120,72.4,120,60
	c0-1.6-0.1-3.1-0.2-4.7L93.2,28.7L68.6,52.2z"/>
<g>
	<path fill-rule="evenodd" clip-rule="evenodd" fill="#002C90" d="M64.2,74c0-0.7,0-1.5-0.1-2.2l6.1-5.3c-0.5-1.6-1.1-3.1-1.8-4.6
		l-7.9,0.5c-1.1-1.6-2.5-3-4.1-4.2l0.5-8c-1.4-0.7-2.8-1.4-4.4-1.8l-5.3,6c-1-0.2-2-0.3-3-0.3s-2,0.1-3,0.3l-5.3-6
		c-1.5,0.5-3,1.1-4.4,1.8l0.5,8c-1.6,1.2-2.9,2.6-4.1,4.2l-7.9-0.5c-0.7,1.5-1.3,3-1.8,4.6l6.1,5.3c-0.1,0.7-0.1,1.5-0.1,2.2
		c0,1.1,0.1,2.1,0.3,3.1l-5.9,5.2c0.5,1.7,1.2,3.3,2.1,4.8l8.1-0.5c1,1.2,2.2,2.3,3.4,3.3l-0.5,8c1.6,0.8,3.3,1.5,5,2l5.3-6
		c0.7,0.1,1.5,0.1,2.3,0.1c0.8,0,1.5-0.1,2.3-0.1l5.3,6c1.7-0.5,3.4-1.2,5-2l-0.5-8c1.3-1,2.4-2.1,3.4-3.3l8.1,0.5
		c0.8-1.5,1.5-3.1,2.1-4.8l-5.9-5.2C64.1,76.1,64.2,75,64.2,74z"/>
	<circle fill-rule="evenodd" clip-rule="evenodd" fill="#0C7BC0" cx="44.2" cy="74" r="6"/>
</g>
<g>
	<path fill-rule="evenodd" clip-rule="evenodd" fill="#FFFFFF" d="M92.8,36.3c-0.1-0.4-0.3-0.9-0.5-1.3l2.6-4.3
		c-0.6-0.9-1.2-1.7-1.9-2.4L88.3,30c-1-0.7-2.1-1.3-3.2-1.8l-1.2-4.9c-1-0.2-2-0.3-3-0.3l-2,4.6c-0.6,0.1-1.2,0.2-1.9,0.4
		c-0.6,0.2-1.2,0.4-1.8,0.7L71,26.2c-0.8,0.6-1.6,1.2-2.3,1.9l1.8,4.7c-0.7,1-1.3,2.1-1.7,3.3l-4.8,1.2c-0.2,1-0.2,2-0.2,3.1
		l4.6,2.1c0.1,0.5,0.2,0.9,0.3,1.3c0.2,0.6,0.5,1.2,0.7,1.8l-2.6,4.3c0.6,0.9,1.4,1.7,2.1,2.5l4.8-1.8c0.8,0.6,1.7,1,2.7,1.3
		l1.2,4.9c1.1,0.2,2.2,0.3,3.4,0.3l2.1-4.6c0.5-0.1,0.9-0.2,1.4-0.3c0.5-0.1,0.9-0.3,1.3-0.5l4.3,2.6c1-0.6,1.8-1.4,2.6-2.2L91,47.3
		c0.6-0.8,1.1-1.7,1.4-2.6l4.9-1.2c0.2-1.1,0.3-2.2,0.4-3.3l-4.5-2C93.1,37.6,93,37,92.8,36.3z"/>
	<circle fill-rule="evenodd" clip-rule="evenodd" fill="#0C7BC0" cx="80.8" cy="40.1" r="3.8"/>
</g>
</svg>
