<?xml version="1.0" encoding="utf-8"?>
<!-- Generator: Adobe Illustrator 17.1.0, SVG Export Plug-In . SVG Version: 6.00 Build 0)  -->
<!DOCTYPE svg PUBLIC "-//W3C//DTD SVG 1.1//EN" "http://www.w3.org/Graphics/SVG/1.1/DTD/svg11.dtd">
<svg version="1.1" id="Layer_1" xmlns="http://www.w3.org/2000/svg" xmlns:xlink="http://www.w3.org/1999/xlink" x="0px" y="0px"
	 viewBox="0 0 120 120" enable-background="new 0 0 120 120" xml:space="preserve">
<circle fill="#0C7BC0" cx="60" cy="60" r="60"/>
<path opacity="0.3" fill="#002C90" enable-background="new    " d="M120,60c0-0.6,0-1.3,0-1.9L88.8,26.9L27,89.2l30.7,30.7
	c0.8,0,1.5,0.1,2.3,0.1C93.1,120,120,93.1,120,60z"/>
<polygon fill="#002C90" points="93.5,93.8 31.5,93.8 31.5,48.2 48.5,31.2 93.5,31.2 "/>
<rect x="62.5" y="31.2" fill="#001F5E" width="31" height="62.5"/>
<polygon fill="#FFFFFF" points="88.5,88.8 26.5,88.8 26.5,48.2 48.5,26.2 88.5,26.2 "/>
<rect x="57.5" y="26.2" fill="#EFEFEF" width="31" height="62.5"/>
<rect x="37.5" y="39" fill="#D3D3D3" width="40" height="1"/>
<rect x="37.5" y="48" fill="#D3D3D3" width="40" height="1"/>
<rect x="37.5" y="57" fill="#D3D3D3" width="40" height="1"/>
<rect x="37.5" y="66" fill="#D3D3D3" width="40" height="1"/>
<rect x="57.5" y="39" fill="#BCBCBC" width="20" height="1"/>
<rect x="57.5" y="48" fill="#BCBCBC" width="20" height="1"/>
<rect x="57.5" y="57" fill="#BCBCBC" width="20" height="1"/>
<rect x="57.5" y="66" fill="#BCBCBC" width="20" height="1"/>
<rect x="37.5" y="75" fill="#D3D3D3" width="20" height="1"/>
<polygon fill="#1DDEEF" points="26.8,48 47.5,48 47.5,27.2 "/>
</svg>
