<?xml version="1.0" encoding="utf-8"?>
<!-- Generator: Adobe Illustrator 17.1.0, SVG Export Plug-In . SVG Version: 6.00 Build 0)  -->
<!DOCTYPE svg PUBLIC "-//W3C//DTD SVG 1.1//EN" "http://www.w3.org/Graphics/SVG/1.1/DTD/svg11.dtd">
<svg version="1.1" id="Layer_1" xmlns="http://www.w3.org/2000/svg" xmlns:xlink="http://www.w3.org/1999/xlink" x="0px" y="0px"
	 viewBox="0 0 120 120" enable-background="new 0 0 120 120" xml:space="preserve">
<circle fill="#0C7BC0" cx="60" cy="60" r="60"/>
<path opacity="0.3" fill="#002C90" enable-background="new    " d="M117.6,76.9L78,37.4L60.3,56.1l5.6,63.6
	C90.5,117.3,110.8,100,117.6,76.9z"/>
<path fill="#FFFFFF" d="M95,92.5C92,92,72.2,87.7,70.7,85c-1.2-2.1-1.5-7.6-1.6-9.9c2-2,4-4.5,5.5-7.4c3.2,0,3.2-4.6,4.3-8.4
	c0.7-2.5-0.2-3.8-1-3.5C78,54.4,78,53,78,51.6c0.6-6.4,1.8-10.9-0.1-14.1c-2.3-3.9-10.5-7.1-13.7-7.9c-3.2-0.8-6.2,0.9-9.9,0
	c-2.4-0.6-7.8,4.2-7.8,8c0,0,0,0,0,0c-0.2-0.1-1.8-1-3.9,1.9c-1.5,2-1.2,6.6,0,12.2c0,1.6,0.1,3.3,0.2,4.9c-0.6-1.7-2.6-0.6-1.6,2.8
	c0.9,3.2,1.1,7,3,8.1l-0.3,0.2l5.9,6c0.4,0.4,0.7,0.9,1.1,1.3c-0.1,2.1-0.4,7.8-1.6,9.9C47.8,87.6,28,92,25,92.5s-5.6,4.3-5.5,11.3
	c0,0.2,0,0.4,0.1,0.7c3.2,2.9,6.8,5.5,10.6,7.7c7.9,3.5,18.5,6.5,26.1,7.6c0.1,0.1,0.2,0.1,0.3,0.2c1.1,0.1,2.2,0.1,3.4,0.1
	c1.1,0,2.3,0,3.4-0.1c0.1-0.1,0.2-0.1,0.3-0.2c7.6-1.2,18.2-4.2,26.1-7.6c3.8-2.2,7.4-4.7,10.6-7.7c0.1-0.2,0.1-0.4,0.1-0.7
	C100.6,96.7,98,93,95,92.5z"/>
<path fill="#F2F2F2" d="M95,92.5C92,92,72.2,87.7,70.7,85c-1.2-2.1-1.5-7.6-1.6-9.9c2-2,4-4.5,5.5-7.4c3.2,0,3.2-4.6,4.3-8.4
	c0.7-2.5-0.2-3.8-1-3.5C78,54.4,78,53,78,51.6c0.6-6.4,1.8-10.9-0.1-14.1c-2.3-3.9-10.5-7.1-13.7-7.9c-1.4-0.4-2.8-0.2-4.2,0v90.5
	c1.1,0,2.3,0,3.4-0.1c0.1-0.1,0.2-0.1,0.3-0.2c7.6-1.2,18.2-4.2,26.1-7.6c3.8-2.2,7.4-4.7,10.6-7.7c0.1-0.2,0.1-0.4,0.1-0.7
	C100.6,96.7,98,93,95,92.5z"/>
<path fill="#1DDEEF" d="M100.3,103.6c0-4.1-1.8-10.6-4.8-10.9c-3.1-0.3-18.4-5.9-18.4-5.9l-3.5-3L61,93.2c0,0-0.4,0.4-1,1.2
	c-0.6-0.8-1-1.2-1-1.2l-12.8-9.4l-3.5,3c0,0-15.3,5.6-18.4,5.9c-3.1,0.3-4.8,6.8-4.8,11.1c0,0.2,0,0.4,0.1,0.6
	C30.3,114.1,44.5,120,60,120c3,0,5.9-0.2,8.8-0.6c0-0.1,0.1-0.1,0.1-0.2c12-1.8,22.8-7.1,31.3-14.8
	C100.3,104.1,100.3,103.9,100.3,103.6z"/>
<path fill="#0C7BC0" d="M95.5,92.7c-3.1-0.3-18.4-5.9-18.4-5.9l-3.5-3L61,93.2c0,0-0.4,0.4-1,1.2c0,0,0,0,0,0V120
	c3,0,5.9-0.2,8.8-0.6c0-0.1,0.1-0.1,0.1-0.2c12-1.8,22.8-7.1,31.3-14.8c0.1-0.3,0.1-0.5,0.1-0.8C100.3,99.5,98.5,93,95.5,92.7z"/>
<path fill="#002C90" d="M18.7,103.5c8.4,8,19.2,13.6,31.1,15.6L42.5,87h-2c-4.6,1-14.8,4.6-17.2,4.9C20.7,92.2,19.1,98.8,18.7,103.5
	z"/>
<path fill="#001F5E" d="M96.5,91.9C94.1,91.6,83.9,88,79.3,87h-2L70,119.2c12-2,22.8-7.6,31.2-15.6c0-0.2,0-0.4,0-0.7
	C101.2,98.6,99.6,92.2,96.5,91.9z"/>
</svg>
