<?xml version="1.0" encoding="utf-8"?>
<!-- Generator: Adobe Illustrator 17.1.0, SVG Export Plug-In . SVG Version: 6.00 Build 0)  -->
<!DOCTYPE svg PUBLIC "-//W3C//DTD SVG 1.1//EN" "http://www.w3.org/Graphics/SVG/1.1/DTD/svg11.dtd">
<svg version="1.1" id="Layer_1" xmlns="http://www.w3.org/2000/svg" xmlns:xlink="http://www.w3.org/1999/xlink" x="0px" y="0px"
	 viewBox="0 0 120 120" enable-background="new 0 0 120 120" xml:space="preserve">
<circle fill="#0C7BC0" cx="60" cy="60" r="60"/>
<path opacity="0.3" fill="#002C90" enable-background="new    " d="M22.9,95.2l23.4,23.2c4.4,1,9,1.6,13.7,1.6c33.1,0,60-26.9,60-60
	c0-2.6-0.2-5.2-0.5-7.7L96.6,29.4L22.9,95.2z"/>
<path fill="#FFFFFF" d="M97,91.1c0,3.3-2.5,5.9-5.8,5.9H27.7c-3.3,0-5.7-2.6-5.7-5.9V34.4c0-3.3,2.5-6.4,5.7-6.4h63.5
	c3.3,0,5.8,3,5.8,6.4V91.1z"/>
<path fill="#F2F2F2" d="M91.2,28H60v69h31.2c3.3,0,5.8-2.6,5.8-5.9V34.4C97,31,94.5,28,91.2,28z"/>
<rect x="22" y="28" fill="#002C90" width="75" height="19"/>
<rect x="60" y="28" fill="#001F5E" width="37" height="19"/>
<rect x="34" y="21" fill="#002C90" width="5" height="7"/>
<rect x="80" y="21" fill="#002C90" width="5" height="7"/>
<g>
	<path fill="#0C7BC0" d="M40.9,80.2c0,0,11.5-8.1,11.5-13.5c0-2.2-1.6-3.7-3.9-3.7c-2.9,0-5.6,2.2-5.6,2.2l-2-3.2
		c0,0,3.7-3.2,8.5-3.2s8.2,3.1,8.2,7.2c0,5.1-5.2,9.7-9.4,13.2h11.5v4H41.2L40.9,80.2z"/>
	<path fill="#0C7BC0" d="M64.1,79.2h5.6V63.4h-5.3v-4h10.3v19.8h5.2v4H64.1V79.2z"/>
</g>
</svg>
