<?xml version="1.0" encoding="utf-8"?>
<!-- Generator: Adobe Illustrator 17.1.0, SVG Export Plug-In . SVG Version: 6.00 Build 0)  -->
<!DOCTYPE svg PUBLIC "-//W3C//DTD SVG 1.1//EN" "http://www.w3.org/Graphics/SVG/1.1/DTD/svg11.dtd">
<svg version="1.1" id="Layer_1" xmlns="http://www.w3.org/2000/svg" xmlns:xlink="http://www.w3.org/1999/xlink" x="0px" y="0px"
	 viewBox="0 0 120 120" enable-background="new 0 0 120 120" xml:space="preserve">
<circle fill="#0C7BC0" cx="60" cy="60" r="60"/>
<path opacity="0.3" fill="#002C90" enable-background="new    " d="M119.1,70.6L62.9,14.4L35.2,104l15.2,15.2
	c3.1,0.5,6.3,0.8,9.6,0.8C89.5,120,114.1,98.7,119.1,70.6z"/>
<polygon fill="#FFFFFF" points="49,40.1 36.4,93.3 41.4,94.8 60.7,54.4 "/>
<polygon fill="#F2F2F2" points="71.6,40.1 84.2,93.3 79.2,94.8 59.9,54.4 "/>
<path fill="#002C90" d="M71.7,56.3c0,1.7-23.3,1.7-23.3,0V29.5c0-1.7,1.3-3,3-3h17.3c1.7,0,3,1.3,3,3V56.3z"/>
<path fill="#001F5E" d="M68.7,26.5H60v31.1c5.8,0,11.7-0.4,11.7-1.3V29.5C71.7,27.8,70.4,26.5,68.7,26.5z"/>
<rect x="57" y="14.3" fill="#002C90" width="6" height="26.8"/>
<rect x="60" y="14.3" fill="#001F5E" width="3" height="26.8"/>
<circle fill="#0C7BC0" cx="60" cy="41.8" r="3.7"/>
<polygon fill="#FFFFFF" points="39.2,88.3 35.2,104 42.5,88.4 "/>
<path fill="#F2F2F2" d="M89.5,91.3c0.6-0.6,1.1-1.4,1.2-2.4c0.2-1.9-1.1-3.7-2.9-4.1L89.5,91.3z"/>
<polygon fill="#F2F2F2" points="89.4,96.9 83.7,74.8 81.1,75.4 88.1,102 "/>
</svg>
