<?xml version="1.0" encoding="utf-8"?>
<!-- Generator: Adobe Illustrator 17.1.0, SVG Export Plug-In . SVG Version: 6.00 Build 0)  -->
<!DOCTYPE svg PUBLIC "-//W3C//DTD SVG 1.1//EN" "http://www.w3.org/Graphics/SVG/1.1/DTD/svg11.dtd">
<svg version="1.1" id="Layer_1" xmlns="http://www.w3.org/2000/svg" xmlns:xlink="http://www.w3.org/1999/xlink" x="0px" y="0px"
	 viewBox="0 0 120 120" enable-background="new 0 0 120 120" xml:space="preserve">
<circle fill="#0C7BC0" cx="60" cy="60" r="60"/>
<path opacity="0.3" fill="#002C90" enable-background="new    " d="M69.1,119.3c26-4,46.5-24.7,50.3-50.8L95.5,44l-3.8,2.5L80,34.8
	l-1.2,3.8L65,24.8L25,75.2L69.1,119.3z"/>
<g>
	<polygon fill="#002C90" points="65,57.7 25,75.2 25,42.3 65,24.8 	"/>
	<polygon fill="#002C90" points="38.6,26.8 25,32.7 25,42.9 42.8,35.2 	"/>
	<polygon fill="#001F5E" points="45,66.5 65,57.7 65,24.8 45,33.5 	"/>
	<polygon fill="#1DDEEF" points="80,67.7 40,85.2 40,52.3 80,34.8 	"/>
	<polygon fill="#1DDEEF" points="53.6,36.8 40,42.7 40,52.9 57.8,45.2 	"/>
	<polygon fill="#1CC2C6" points="60,76.5 80,67.7 80,34.8 60,43.5 	"/>
	<polygon fill="#FFFFFF" points="95,77.7 55,95.2 55,62.3 95,44.8 	"/>
	<polygon fill="#FFFFFF" points="68.6,46.8 55,52.7 55,62.9 72.8,55.2 	"/>
	<polygon fill="#E8E8E8" points="75,86.5 95,77.7 95,44.8 75,53.5 	"/>
</g>
</svg>
