<?xml version="1.0" encoding="utf-8"?>
<!-- Generator: Adobe Illustrator 17.1.0, SVG Export Plug-In . SVG Version: 6.00 Build 0)  -->
<!DOCTYPE svg PUBLIC "-//W3C//DTD SVG 1.1//EN" "http://www.w3.org/Graphics/SVG/1.1/DTD/svg11.dtd">
<svg version="1.1" id="Layer_1" xmlns="http://www.w3.org/2000/svg" xmlns:xlink="http://www.w3.org/1999/xlink" x="0px" y="0px"
	 viewBox="0 0 120 120" enable-background="new 0 0 120 120" xml:space="preserve">
<circle fill="#0C7BC0" cx="60" cy="60" r="60"/>
<path opacity="0.3" fill="#002C90" enable-background="new    " d="M80,38.5L61.5,20L43.8,76.4v-0.5L26.5,82l11.8,11.8L36,101
	l18.8,18.8c1.7,0.1,3.5,0.2,5.2,0.2c33.1,0,60-26.9,60-60c0-3.3-0.3-6.6-0.8-9.8L98.8,29.8L80,38.5z"/>
<rect x="26" y="35" fill="#FFFFFF" width="68" height="47"/>
<rect x="60" y="35" fill="#EFEFEF" width="34" height="47"/>
<rect x="20" y="29" fill="#002C90" width="80" height="6"/>
<rect x="60" y="29" fill="#001F5E" width="40" height="6"/>
<rect x="58.5" y="20" fill="#002C90" width="3" height="9"/>
<g>
	<polygon fill="#001F5E" points="43.5,82 40.5,82 35.5,101 38.5,101 	"/>
	<polygon fill="#001F5E" points="76.5,82 79.5,82 84.5,101 81.5,101 	"/>
</g>
<polygon fill="#E5E5E5" points="71.2,44.5 43.7,70 29,55.4 29,79 91,79 91,62.5 "/>
<polygon fill="#D3D3D3" points="60,54.9 60,79 91,79 91,62.5 71.2,44.5 "/>
</svg>
