<?xml version="1.0" encoding="utf-8"?>
<!-- Generator: Adobe Illustrator 17.1.0, SVG Export Plug-In . SVG Version: 6.00 Build 0)  -->
<!DOCTYPE svg PUBLIC "-//W3C//DTD SVG 1.1//EN" "http://www.w3.org/Graphics/SVG/1.1/DTD/svg11.dtd">
<svg version="1.1" id="Layer_1" xmlns="http://www.w3.org/2000/svg" xmlns:xlink="http://www.w3.org/1999/xlink" x="0px" y="0px"
	 viewBox="0 0 120 120" enable-background="new 0 0 120 120" xml:space="preserve">
<g>
	<path fill="#FFFFFF" d="M64,104.7c-27.5,0-49.9-22.4-49.9-49.9C14.1,27.3,36.5,4.9,64,4.9c27.5,0,49.9,22.4,49.9,49.9
		C113.9,82.3,91.5,104.7,64,104.7z M64,16.9c-20.9,0-37.9,17-37.9,37.9s17,37.9,37.9,37.9c20.9,0,37.9-17,37.9-37.9
		S84.9,16.9,64,16.9z"/>
	<path fill="#FFFFFF" d="M95.7,54.8h-12C83.7,43.9,74.9,35,64,35V23C81.5,23,95.7,37.3,95.7,54.8z"/>
	
		<rect x="16.3" y="82" transform="matrix(0.7071 0.7071 -0.7071 0.7071 76.4875 13.2029)" fill="#FFFFFF" width="12" height="33.8"/>
</g>
</svg>
